%FSDAX43Y43*%
%MOMM*%
%SFA1B1*%

%IPPOS*%
%ADD19C,0.051000*%
%ADD20C,0.068000*%
%LNarduinounoshield-1*%
%LPD*%
G54D19*
X0075996Y0036753D02*
Y0037159D01*
X0076402*
Y0036753*
X0075996*
X0084455Y0048183D02*
X0084251Y0048589D01*
X0084657*
X0084455Y0048183*
X0086995D02*
X0086791Y0048589D01*
X0087197*
X0086995Y0048183*
X0089535D02*
X0089331Y0048589D01*
X0089737*
X0089535Y0048183*
X0092075D02*
X0091871Y0048589D01*
X0092277*
X0092075Y0048183*
X0094615D02*
X0094411Y0048589D01*
X0094817*
X0094615Y0048183*
X0080645Y0043738D02*
X0080441Y0044144D01*
X0080847*
X0080645Y0043738*
X0078105D02*
X0077901Y0044144D01*
X0078307*
X0078105Y0043738*
X0075565D02*
X0075361Y0044144D01*
X0075767*
X0075565Y0043738*
X0084455Y0051358D02*
X0084251Y0051764D01*
X0084657*
X0084455Y0051358*
X0086995D02*
X0086791Y0051764D01*
X0087197*
X0086995Y0051358*
X0089535D02*
X0089331Y0051764D01*
X0089737*
X0089535Y0051358*
X0092075D02*
X0091871Y0051764D01*
X0092277*
X0092075Y0051358*
X0094615D02*
X0094411Y0051764D01*
X0094817*
X0094615Y0051358*
X0085725Y0061518D02*
X0085521Y0061924D01*
X0085927*
X0085725Y0061518*
Y0064058D02*
X0085521Y0064464D01*
X0085927*
X0085725Y0064058*
X0088265Y0061518D02*
X0088061Y0061924D01*
X0088467*
X0088265Y0061518*
X0090805D02*
X0090601Y0061924D01*
X0091007*
X0090805Y0061518*
X0088265Y0064058D02*
X0088061Y0064464D01*
X0088467*
X0088265Y0064058*
X0090805D02*
X0090601Y0064464D01*
X0091007*
X0090805Y0064058*
X0093345Y0061518D02*
X0093141Y0061924D01*
X0093547*
X0093345Y0061518*
Y0064058D02*
X0093141Y0064464D01*
X0093547*
X0093345Y0064058*
G54D20*
X0077418Y0057912D02*
D01*
X0077418Y0057926*
X0077417Y0057940*
X0077414Y0057954*
X0077411Y0057967*
X0077406Y0057981*
X0077401Y0057994*
X0077395Y0058007*
X0077388Y0058019*
X0077380Y0058031*
X0077371Y0058042*
X0077362Y0058052*
X0077351Y0058062*
X0077340Y0058071*
X0077329Y0058080*
X0077317Y0058087*
X0077304Y0058094*
X0077292Y0058100*
X0077278Y0058105*
X0077265Y0058108*
X0077251Y0058111*
X0077237Y0058113*
X0077223Y0058114*
X0077208*
X0077194Y0058113*
X0077180Y0058111*
X0077166Y0058108*
X0077153Y0058105*
X0077139Y0058100*
X0077126Y0058094*
X0077114Y0058087*
X0077102Y0058080*
X0077091Y0058071*
X0077080Y0058062*
X0077069Y0058052*
X0077060Y0058042*
X0077051Y0058031*
X0077043Y0058019*
X0077036Y0058007*
X0077030Y0057994*
X0077025Y0057981*
X0077020Y0057967*
X0077017Y0057954*
X0077014Y0057940*
X0077013Y0057926*
X0077012Y0057912*
X0077013Y0057897*
X0077014Y0057883*
X0077017Y0057869*
X0077020Y0057856*
X0077025Y0057842*
X0077030Y0057829*
X0077036Y0057816*
X0077043Y0057804*
X0077051Y0057792*
X0077060Y0057781*
X0077069Y0057770*
X0077080Y0057761*
X0077091Y0057752*
X0077102Y0057743*
X0077114Y0057736*
X0077126Y0057729*
X0077139Y0057723*
X0077153Y0057718*
X0077166Y0057715*
X0077180Y0057712*
X0077194Y0057710*
X0077208Y0057709*
X0077223*
X0077237Y0057710*
X0077251Y0057712*
X0077265Y0057715*
X0077278Y0057718*
X0077292Y0057723*
X0077304Y0057729*
X0077317Y0057736*
X0077329Y0057743*
X0077340Y0057752*
X0077351Y0057761*
X0077362Y0057770*
X0077371Y0057781*
X0077380Y0057792*
X0077388Y0057804*
X0077395Y0057816*
X0077401Y0057829*
X0077406Y0057842*
X0077411Y0057856*
X0077414Y0057869*
X0077417Y0057883*
X0077418Y0057897*
X0077418Y0057912*
X0069798D02*
D01*
X0069798Y0057926*
X0069797Y0057940*
X0069794Y0057954*
X0069791Y0057967*
X0069786Y0057981*
X0069781Y0057994*
X0069775Y0058007*
X0069768Y0058019*
X0069760Y0058031*
X0069751Y0058042*
X0069742Y0058052*
X0069731Y0058062*
X0069720Y0058071*
X0069709Y0058080*
X0069697Y0058087*
X0069684Y0058094*
X0069672Y0058100*
X0069658Y0058105*
X0069645Y0058108*
X0069631Y0058111*
X0069617Y0058113*
X0069603Y0058114*
X0069588*
X0069574Y0058113*
X0069560Y0058111*
X0069546Y0058108*
X0069533Y0058105*
X0069519Y0058100*
X0069506Y0058094*
X0069494Y0058087*
X0069482Y0058080*
X0069471Y0058071*
X0069460Y0058062*
X0069449Y0058052*
X0069440Y0058042*
X0069431Y0058031*
X0069423Y0058019*
X0069416Y0058007*
X0069410Y0057994*
X0069405Y0057981*
X0069400Y0057967*
X0069397Y0057954*
X0069394Y0057940*
X0069393Y0057926*
X0069392Y0057912*
X0069393Y0057897*
X0069394Y0057883*
X0069397Y0057869*
X0069400Y0057856*
X0069405Y0057842*
X0069410Y0057829*
X0069416Y0057816*
X0069423Y0057804*
X0069431Y0057792*
X0069440Y0057781*
X0069449Y0057770*
X0069460Y0057761*
X0069471Y0057752*
X0069482Y0057743*
X0069494Y0057736*
X0069506Y0057729*
X0069519Y0057723*
X0069533Y0057718*
X0069546Y0057715*
X0069560Y0057712*
X0069574Y0057710*
X0069588Y0057709*
X0069603*
X0069617Y0057710*
X0069631Y0057712*
X0069645Y0057715*
X0069658Y0057718*
X0069672Y0057723*
X0069684Y0057729*
X0069697Y0057736*
X0069709Y0057743*
X0069720Y0057752*
X0069731Y0057761*
X0069742Y0057770*
X0069751Y0057781*
X0069760Y0057792*
X0069768Y0057804*
X0069775Y0057816*
X0069781Y0057829*
X0069786Y0057842*
X0069791Y0057856*
X0069794Y0057869*
X0069797Y0057883*
X0069798Y0057897*
X0069798Y0057912*
X0067258D02*
D01*
X0067258Y0057926*
X0067257Y0057940*
X0067254Y0057954*
X0067251Y0057967*
X0067246Y0057981*
X0067241Y0057994*
X0067235Y0058007*
X0067228Y0058019*
X0067220Y0058031*
X0067211Y0058042*
X0067202Y0058052*
X0067191Y0058062*
X0067180Y0058071*
X0067169Y0058080*
X0067157Y0058087*
X0067144Y0058094*
X0067132Y0058100*
X0067118Y0058105*
X0067105Y0058108*
X0067091Y0058111*
X0067077Y0058113*
X0067063Y0058114*
X0067048*
X0067034Y0058113*
X0067020Y0058111*
X0067006Y0058108*
X0066993Y0058105*
X0066979Y0058100*
X0066966Y0058094*
X0066954Y0058087*
X0066942Y0058080*
X0066931Y0058071*
X0066920Y0058062*
X0066909Y0058052*
X0066900Y0058042*
X0066891Y0058031*
X0066883Y0058019*
X0066876Y0058007*
X0066870Y0057994*
X0066865Y0057981*
X0066860Y0057967*
X0066857Y0057954*
X0066854Y0057940*
X0066853Y0057926*
X0066852Y0057912*
X0066853Y0057897*
X0066854Y0057883*
X0066857Y0057869*
X0066860Y0057856*
X0066865Y0057842*
X0066870Y0057829*
X0066876Y0057816*
X0066883Y0057804*
X0066891Y0057792*
X0066900Y0057781*
X0066909Y0057770*
X0066920Y0057761*
X0066931Y0057752*
X0066942Y0057743*
X0066954Y0057736*
X0066966Y0057729*
X0066979Y0057723*
X0066993Y0057718*
X0067006Y0057715*
X0067020Y0057712*
X0067034Y0057710*
X0067048Y0057709*
X0067063*
X0067077Y0057710*
X0067091Y0057712*
X0067105Y0057715*
X0067118Y0057718*
X0067132Y0057723*
X0067144Y0057729*
X0067157Y0057736*
X0067169Y0057743*
X0067180Y0057752*
X0067191Y0057761*
X0067202Y0057770*
X0067211Y0057781*
X0067220Y0057792*
X0067228Y0057804*
X0067235Y0057816*
X0067241Y0057829*
X0067246Y0057842*
X0067251Y0057856*
X0067254Y0057869*
X0067257Y0057883*
X0067258Y0057897*
X0067258Y0057912*
X0064718D02*
D01*
X0064718Y0057926*
X0064717Y0057940*
X0064714Y0057954*
X0064711Y0057967*
X0064706Y0057981*
X0064701Y0057994*
X0064695Y0058007*
X0064688Y0058019*
X0064680Y0058031*
X0064671Y0058042*
X0064662Y0058052*
X0064651Y0058062*
X0064640Y0058071*
X0064629Y0058080*
X0064617Y0058087*
X0064604Y0058094*
X0064592Y0058100*
X0064578Y0058105*
X0064565Y0058108*
X0064551Y0058111*
X0064537Y0058113*
X0064523Y0058114*
X0064508*
X0064494Y0058113*
X0064480Y0058111*
X0064466Y0058108*
X0064453Y0058105*
X0064439Y0058100*
X0064426Y0058094*
X0064414Y0058087*
X0064402Y0058080*
X0064391Y0058071*
X0064380Y0058062*
X0064369Y0058052*
X0064360Y0058042*
X0064351Y0058031*
X0064343Y0058019*
X0064336Y0058007*
X0064330Y0057994*
X0064325Y0057981*
X0064320Y0057967*
X0064317Y0057954*
X0064314Y0057940*
X0064313Y0057926*
X0064312Y0057912*
X0064313Y0057897*
X0064314Y0057883*
X0064317Y0057869*
X0064320Y0057856*
X0064325Y0057842*
X0064330Y0057829*
X0064336Y0057816*
X0064343Y0057804*
X0064351Y0057792*
X0064360Y0057781*
X0064369Y0057770*
X0064380Y0057761*
X0064391Y0057752*
X0064402Y0057743*
X0064414Y0057736*
X0064426Y0057729*
X0064439Y0057723*
X0064453Y0057718*
X0064466Y0057715*
X0064480Y0057712*
X0064494Y0057710*
X0064508Y0057709*
X0064523*
X0064537Y0057710*
X0064551Y0057712*
X0064565Y0057715*
X0064578Y0057718*
X0064592Y0057723*
X0064604Y0057729*
X0064617Y0057736*
X0064629Y0057743*
X0064640Y0057752*
X0064651Y0057761*
X0064662Y0057770*
X0064671Y0057781*
X0064680Y0057792*
X0064688Y0057804*
X0064695Y0057816*
X0064701Y0057829*
X0064706Y0057842*
X0064711Y0057856*
X0064714Y0057869*
X0064717Y0057883*
X0064718Y0057897*
X0064718Y0057912*
X0062178D02*
D01*
X0062178Y0057926*
X0062177Y0057940*
X0062174Y0057954*
X0062171Y0057967*
X0062166Y0057981*
X0062161Y0057994*
X0062155Y0058007*
X0062148Y0058019*
X0062140Y0058031*
X0062131Y0058042*
X0062122Y0058052*
X0062111Y0058062*
X0062100Y0058071*
X0062089Y0058080*
X0062077Y0058087*
X0062064Y0058094*
X0062052Y0058100*
X0062038Y0058105*
X0062025Y0058108*
X0062011Y0058111*
X0061997Y0058113*
X0061983Y0058114*
X0061968*
X0061954Y0058113*
X0061940Y0058111*
X0061926Y0058108*
X0061913Y0058105*
X0061899Y0058100*
X0061886Y0058094*
X0061874Y0058087*
X0061862Y0058080*
X0061851Y0058071*
X0061840Y0058062*
X0061829Y0058052*
X0061820Y0058042*
X0061811Y0058031*
X0061803Y0058019*
X0061796Y0058007*
X0061790Y0057994*
X0061785Y0057981*
X0061780Y0057967*
X0061777Y0057954*
X0061774Y0057940*
X0061773Y0057926*
X0061772Y0057912*
X0061773Y0057897*
X0061774Y0057883*
X0061777Y0057869*
X0061780Y0057856*
X0061785Y0057842*
X0061790Y0057829*
X0061796Y0057816*
X0061803Y0057804*
X0061811Y0057792*
X0061820Y0057781*
X0061829Y0057770*
X0061840Y0057761*
X0061851Y0057752*
X0061862Y0057743*
X0061874Y0057736*
X0061886Y0057729*
X0061899Y0057723*
X0061913Y0057718*
X0061926Y0057715*
X0061940Y0057712*
X0061954Y0057710*
X0061968Y0057709*
X0061983*
X0061997Y0057710*
X0062011Y0057712*
X0062025Y0057715*
X0062038Y0057718*
X0062052Y0057723*
X0062064Y0057729*
X0062077Y0057736*
X0062089Y0057743*
X0062100Y0057752*
X0062111Y0057761*
X0062122Y0057770*
X0062131Y0057781*
X0062140Y0057792*
X0062148Y0057804*
X0062155Y0057816*
X0062161Y0057829*
X0062166Y0057842*
X0062171Y0057856*
X0062174Y0057869*
X0062177Y0057883*
X0062178Y0057897*
X0062178Y0057912*
X0059638D02*
D01*
X0059638Y0057926*
X0059637Y0057940*
X0059634Y0057954*
X0059631Y0057967*
X0059626Y0057981*
X0059621Y0057994*
X0059615Y0058007*
X0059608Y0058019*
X0059600Y0058031*
X0059591Y0058042*
X0059582Y0058052*
X0059571Y0058062*
X0059560Y0058071*
X0059549Y0058080*
X0059537Y0058087*
X0059524Y0058094*
X0059512Y0058100*
X0059498Y0058105*
X0059485Y0058108*
X0059471Y0058111*
X0059457Y0058113*
X0059443Y0058114*
X0059428*
X0059414Y0058113*
X0059400Y0058111*
X0059386Y0058108*
X0059373Y0058105*
X0059359Y0058100*
X0059346Y0058094*
X0059334Y0058087*
X0059322Y0058080*
X0059311Y0058071*
X0059300Y0058062*
X0059289Y0058052*
X0059280Y0058042*
X0059271Y0058031*
X0059263Y0058019*
X0059256Y0058007*
X0059250Y0057994*
X0059245Y0057981*
X0059240Y0057967*
X0059237Y0057954*
X0059234Y0057940*
X0059233Y0057926*
X0059232Y0057912*
X0059233Y0057897*
X0059234Y0057883*
X0059237Y0057869*
X0059240Y0057856*
X0059245Y0057842*
X0059250Y0057829*
X0059256Y0057816*
X0059263Y0057804*
X0059271Y0057792*
X0059280Y0057781*
X0059289Y0057770*
X0059300Y0057761*
X0059311Y0057752*
X0059322Y0057743*
X0059334Y0057736*
X0059346Y0057729*
X0059359Y0057723*
X0059373Y0057718*
X0059386Y0057715*
X0059400Y0057712*
X0059414Y0057710*
X0059428Y0057709*
X0059443*
X0059457Y0057710*
X0059471Y0057712*
X0059485Y0057715*
X0059498Y0057718*
X0059512Y0057723*
X0059524Y0057729*
X0059537Y0057736*
X0059549Y0057743*
X0059560Y0057752*
X0059571Y0057761*
X0059582Y0057770*
X0059591Y0057781*
X0059600Y0057792*
X0059608Y0057804*
X0059615Y0057816*
X0059621Y0057829*
X0059626Y0057842*
X0059631Y0057856*
X0059634Y0057869*
X0059637Y0057883*
X0059638Y0057897*
X0059638Y0057912*
X0074878D02*
D01*
X0074878Y0057926*
X0074877Y0057940*
X0074874Y0057954*
X0074871Y0057967*
X0074866Y0057981*
X0074861Y0057994*
X0074855Y0058007*
X0074848Y0058019*
X0074840Y0058031*
X0074831Y0058042*
X0074822Y0058052*
X0074811Y0058062*
X0074800Y0058071*
X0074789Y0058080*
X0074777Y0058087*
X0074764Y0058094*
X0074752Y0058100*
X0074738Y0058105*
X0074725Y0058108*
X0074711Y0058111*
X0074697Y0058113*
X0074683Y0058114*
X0074668*
X0074654Y0058113*
X0074640Y0058111*
X0074626Y0058108*
X0074613Y0058105*
X0074599Y0058100*
X0074586Y0058094*
X0074574Y0058087*
X0074562Y0058080*
X0074551Y0058071*
X0074540Y0058062*
X0074529Y0058052*
X0074520Y0058042*
X0074511Y0058031*
X0074503Y0058019*
X0074496Y0058007*
X0074490Y0057994*
X0074485Y0057981*
X0074480Y0057967*
X0074477Y0057954*
X0074474Y0057940*
X0074473Y0057926*
X0074472Y0057912*
X0074473Y0057897*
X0074474Y0057883*
X0074477Y0057869*
X0074480Y0057856*
X0074485Y0057842*
X0074490Y0057829*
X0074496Y0057816*
X0074503Y0057804*
X0074511Y0057792*
X0074520Y0057781*
X0074529Y0057770*
X0074540Y0057761*
X0074551Y0057752*
X0074562Y0057743*
X0074574Y0057736*
X0074586Y0057729*
X0074599Y0057723*
X0074613Y0057718*
X0074626Y0057715*
X0074640Y0057712*
X0074654Y0057710*
X0074668Y0057709*
X0074683*
X0074697Y0057710*
X0074711Y0057712*
X0074725Y0057715*
X0074738Y0057718*
X0074752Y0057723*
X0074764Y0057729*
X0074777Y0057736*
X0074789Y0057743*
X0074800Y0057752*
X0074811Y0057761*
X0074822Y0057770*
X0074831Y0057781*
X0074840Y0057792*
X0074848Y0057804*
X0074855Y0057816*
X0074861Y0057829*
X0074866Y0057842*
X0074871Y0057856*
X0074874Y0057869*
X0074877Y0057883*
X0074878Y0057897*
X0074878Y0057912*
X0072338D02*
D01*
X0072338Y0057926*
X0072337Y0057940*
X0072334Y0057954*
X0072331Y0057967*
X0072326Y0057981*
X0072321Y0057994*
X0072315Y0058007*
X0072308Y0058019*
X0072300Y0058031*
X0072291Y0058042*
X0072282Y0058052*
X0072271Y0058062*
X0072260Y0058071*
X0072249Y0058080*
X0072237Y0058087*
X0072224Y0058094*
X0072212Y0058100*
X0072198Y0058105*
X0072185Y0058108*
X0072171Y0058111*
X0072157Y0058113*
X0072143Y0058114*
X0072128*
X0072114Y0058113*
X0072100Y0058111*
X0072086Y0058108*
X0072073Y0058105*
X0072059Y0058100*
X0072046Y0058094*
X0072034Y0058087*
X0072022Y0058080*
X0072011Y0058071*
X0072000Y0058062*
X0071989Y0058052*
X0071980Y0058042*
X0071971Y0058031*
X0071963Y0058019*
X0071956Y0058007*
X0071950Y0057994*
X0071945Y0057981*
X0071940Y0057967*
X0071937Y0057954*
X0071934Y0057940*
X0071933Y0057926*
X0071932Y0057912*
X0071933Y0057897*
X0071934Y0057883*
X0071937Y0057869*
X0071940Y0057856*
X0071945Y0057842*
X0071950Y0057829*
X0071956Y0057816*
X0071963Y0057804*
X0071971Y0057792*
X0071980Y0057781*
X0071989Y0057770*
X0072000Y0057761*
X0072011Y0057752*
X0072022Y0057743*
X0072034Y0057736*
X0072046Y0057729*
X0072059Y0057723*
X0072073Y0057718*
X0072086Y0057715*
X0072100Y0057712*
X0072114Y0057710*
X0072128Y0057709*
X0072143*
X0072157Y0057710*
X0072171Y0057712*
X0072185Y0057715*
X0072198Y0057718*
X0072212Y0057723*
X0072224Y0057729*
X0072237Y0057736*
X0072249Y0057743*
X0072260Y0057752*
X0072271Y0057761*
X0072282Y0057770*
X0072291Y0057781*
X0072300Y0057792*
X0072308Y0057804*
X0072315Y0057816*
X0072321Y0057829*
X0072326Y0057842*
X0072331Y0057856*
X0072334Y0057869*
X0072337Y0057883*
X0072338Y0057897*
X0072338Y0057912*
X0071322Y0033782D02*
D01*
X0071322Y0033796*
X0071321Y0033810*
X0071318Y0033824*
X0071315Y0033837*
X0071310Y0033851*
X0071305Y0033864*
X0071299Y0033877*
X0071292Y0033889*
X0071284Y0033901*
X0071275Y0033912*
X0071266Y0033922*
X0071255Y0033932*
X0071244Y0033941*
X0071233Y0033950*
X0071221Y0033957*
X0071208Y0033964*
X0071196Y0033970*
X0071182Y0033975*
X0071169Y0033978*
X0071155Y0033981*
X0071141Y0033983*
X0071127Y0033984*
X0071112*
X0071098Y0033983*
X0071084Y0033981*
X0071070Y0033978*
X0071057Y0033975*
X0071043Y0033970*
X0071030Y0033964*
X0071018Y0033957*
X0071006Y0033950*
X0070995Y0033941*
X0070984Y0033932*
X0070973Y0033922*
X0070964Y0033912*
X0070955Y0033901*
X0070947Y0033889*
X0070940Y0033877*
X0070934Y0033864*
X0070929Y0033851*
X0070924Y0033837*
X0070921Y0033824*
X0070918Y0033810*
X0070917Y0033796*
X0070916Y0033782*
X0070917Y0033767*
X0070918Y0033753*
X0070921Y0033739*
X0070924Y0033726*
X0070929Y0033712*
X0070934Y0033699*
X0070940Y0033686*
X0070947Y0033674*
X0070955Y0033662*
X0070964Y0033651*
X0070973Y0033640*
X0070984Y0033631*
X0070995Y0033622*
X0071006Y0033613*
X0071018Y0033606*
X0071030Y0033599*
X0071043Y0033593*
X0071057Y0033588*
X0071070Y0033585*
X0071084Y0033582*
X0071098Y0033580*
X0071112Y0033579*
X0071127*
X0071141Y0033580*
X0071155Y0033582*
X0071169Y0033585*
X0071182Y0033588*
X0071196Y0033593*
X0071208Y0033599*
X0071221Y0033606*
X0071233Y0033613*
X0071244Y0033622*
X0071255Y0033631*
X0071266Y0033640*
X0071275Y0033651*
X0071284Y0033662*
X0071292Y0033674*
X0071299Y0033686*
X0071305Y0033699*
X0071310Y0033712*
X0071315Y0033726*
X0071318Y0033739*
X0071321Y0033753*
X0071322Y0033767*
X0071322Y0033782*
X0073862D02*
D01*
X0073862Y0033796*
X0073861Y0033810*
X0073858Y0033824*
X0073855Y0033837*
X0073850Y0033851*
X0073845Y0033864*
X0073839Y0033877*
X0073832Y0033889*
X0073824Y0033901*
X0073815Y0033912*
X0073806Y0033922*
X0073795Y0033932*
X0073784Y0033941*
X0073773Y0033950*
X0073761Y0033957*
X0073748Y0033964*
X0073736Y0033970*
X0073722Y0033975*
X0073709Y0033978*
X0073695Y0033981*
X0073681Y0033983*
X0073667Y0033984*
X0073652*
X0073638Y0033983*
X0073624Y0033981*
X0073610Y0033978*
X0073597Y0033975*
X0073583Y0033970*
X0073570Y0033964*
X0073558Y0033957*
X0073546Y0033950*
X0073535Y0033941*
X0073524Y0033932*
X0073513Y0033922*
X0073504Y0033912*
X0073495Y0033901*
X0073487Y0033889*
X0073480Y0033877*
X0073474Y0033864*
X0073469Y0033851*
X0073464Y0033837*
X0073461Y0033824*
X0073458Y0033810*
X0073457Y0033796*
X0073456Y0033782*
X0073457Y0033767*
X0073458Y0033753*
X0073461Y0033739*
X0073464Y0033726*
X0073469Y0033712*
X0073474Y0033699*
X0073480Y0033686*
X0073487Y0033674*
X0073495Y0033662*
X0073504Y0033651*
X0073513Y0033640*
X0073524Y0033631*
X0073535Y0033622*
X0073546Y0033613*
X0073558Y0033606*
X0073570Y0033599*
X0073583Y0033593*
X0073597Y0033588*
X0073610Y0033585*
X0073624Y0033582*
X0073638Y0033580*
X0073652Y0033579*
X0073667*
X0073681Y0033580*
X0073695Y0033582*
X0073709Y0033585*
X0073722Y0033588*
X0073736Y0033593*
X0073748Y0033599*
X0073761Y0033606*
X0073773Y0033613*
X0073784Y0033622*
X0073795Y0033631*
X0073806Y0033640*
X0073815Y0033651*
X0073824Y0033662*
X0073832Y0033674*
X0073839Y0033686*
X0073845Y0033699*
X0073850Y0033712*
X0073855Y0033726*
X0073858Y0033739*
X0073861Y0033753*
X0073862Y0033767*
X0073862Y0033782*
X0058622D02*
D01*
X0058622Y0033796*
X0058621Y0033810*
X0058618Y0033824*
X0058615Y0033837*
X0058610Y0033851*
X0058605Y0033864*
X0058599Y0033877*
X0058592Y0033889*
X0058584Y0033901*
X0058575Y0033912*
X0058566Y0033922*
X0058555Y0033932*
X0058544Y0033941*
X0058533Y0033950*
X0058521Y0033957*
X0058508Y0033964*
X0058496Y0033970*
X0058482Y0033975*
X0058469Y0033978*
X0058455Y0033981*
X0058441Y0033983*
X0058427Y0033984*
X0058412*
X0058398Y0033983*
X0058384Y0033981*
X0058370Y0033978*
X0058357Y0033975*
X0058343Y0033970*
X0058330Y0033964*
X0058318Y0033957*
X0058306Y0033950*
X0058295Y0033941*
X0058284Y0033932*
X0058273Y0033922*
X0058264Y0033912*
X0058255Y0033901*
X0058247Y0033889*
X0058240Y0033877*
X0058234Y0033864*
X0058229Y0033851*
X0058224Y0033837*
X0058221Y0033824*
X0058218Y0033810*
X0058217Y0033796*
X0058216Y0033782*
X0058217Y0033767*
X0058218Y0033753*
X0058221Y0033739*
X0058224Y0033726*
X0058229Y0033712*
X0058234Y0033699*
X0058240Y0033686*
X0058247Y0033674*
X0058255Y0033662*
X0058264Y0033651*
X0058273Y0033640*
X0058284Y0033631*
X0058295Y0033622*
X0058306Y0033613*
X0058318Y0033606*
X0058330Y0033599*
X0058343Y0033593*
X0058357Y0033588*
X0058370Y0033585*
X0058384Y0033582*
X0058398Y0033580*
X0058412Y0033579*
X0058427*
X0058441Y0033580*
X0058455Y0033582*
X0058469Y0033585*
X0058482Y0033588*
X0058496Y0033593*
X0058508Y0033599*
X0058521Y0033606*
X0058533Y0033613*
X0058544Y0033622*
X0058555Y0033631*
X0058566Y0033640*
X0058575Y0033651*
X0058584Y0033662*
X0058592Y0033674*
X0058599Y0033686*
X0058605Y0033699*
X0058610Y0033712*
X0058615Y0033726*
X0058618Y0033739*
X0058621Y0033753*
X0058622Y0033767*
X0058622Y0033782*
X0061162D02*
D01*
X0061162Y0033796*
X0061161Y0033810*
X0061158Y0033824*
X0061155Y0033837*
X0061150Y0033851*
X0061145Y0033864*
X0061139Y0033877*
X0061132Y0033889*
X0061124Y0033901*
X0061115Y0033912*
X0061106Y0033922*
X0061095Y0033932*
X0061084Y0033941*
X0061073Y0033950*
X0061061Y0033957*
X0061048Y0033964*
X0061036Y0033970*
X0061022Y0033975*
X0061009Y0033978*
X0060995Y0033981*
X0060981Y0033983*
X0060967Y0033984*
X0060952*
X0060938Y0033983*
X0060924Y0033981*
X0060910Y0033978*
X0060897Y0033975*
X0060883Y0033970*
X0060870Y0033964*
X0060858Y0033957*
X0060846Y0033950*
X0060835Y0033941*
X0060824Y0033932*
X0060813Y0033922*
X0060804Y0033912*
X0060795Y0033901*
X0060787Y0033889*
X0060780Y0033877*
X0060774Y0033864*
X0060769Y0033851*
X0060764Y0033837*
X0060761Y0033824*
X0060758Y0033810*
X0060757Y0033796*
X0060756Y0033782*
X0060757Y0033767*
X0060758Y0033753*
X0060761Y0033739*
X0060764Y0033726*
X0060769Y0033712*
X0060774Y0033699*
X0060780Y0033686*
X0060787Y0033674*
X0060795Y0033662*
X0060804Y0033651*
X0060813Y0033640*
X0060824Y0033631*
X0060835Y0033622*
X0060846Y0033613*
X0060858Y0033606*
X0060870Y0033599*
X0060883Y0033593*
X0060897Y0033588*
X0060910Y0033585*
X0060924Y0033582*
X0060938Y0033580*
X0060952Y0033579*
X0060967*
X0060981Y0033580*
X0060995Y0033582*
X0061009Y0033585*
X0061022Y0033588*
X0061036Y0033593*
X0061048Y0033599*
X0061061Y0033606*
X0061073Y0033613*
X0061084Y0033622*
X0061095Y0033631*
X0061106Y0033640*
X0061115Y0033651*
X0061124Y0033662*
X0061132Y0033674*
X0061139Y0033686*
X0061145Y0033699*
X0061150Y0033712*
X0061155Y0033726*
X0061158Y0033739*
X0061161Y0033753*
X0061162Y0033767*
X0061162Y0033782*
X0063702D02*
D01*
X0063702Y0033796*
X0063701Y0033810*
X0063698Y0033824*
X0063695Y0033837*
X0063690Y0033851*
X0063685Y0033864*
X0063679Y0033877*
X0063672Y0033889*
X0063664Y0033901*
X0063655Y0033912*
X0063646Y0033922*
X0063635Y0033932*
X0063624Y0033941*
X0063613Y0033950*
X0063601Y0033957*
X0063588Y0033964*
X0063576Y0033970*
X0063562Y0033975*
X0063549Y0033978*
X0063535Y0033981*
X0063521Y0033983*
X0063507Y0033984*
X0063492*
X0063478Y0033983*
X0063464Y0033981*
X0063450Y0033978*
X0063437Y0033975*
X0063423Y0033970*
X0063410Y0033964*
X0063398Y0033957*
X0063386Y0033950*
X0063375Y0033941*
X0063364Y0033932*
X0063353Y0033922*
X0063344Y0033912*
X0063335Y0033901*
X0063327Y0033889*
X0063320Y0033877*
X0063314Y0033864*
X0063309Y0033851*
X0063304Y0033837*
X0063301Y0033824*
X0063298Y0033810*
X0063297Y0033796*
X0063296Y0033782*
X0063297Y0033767*
X0063298Y0033753*
X0063301Y0033739*
X0063304Y0033726*
X0063309Y0033712*
X0063314Y0033699*
X0063320Y0033686*
X0063327Y0033674*
X0063335Y0033662*
X0063344Y0033651*
X0063353Y0033640*
X0063364Y0033631*
X0063375Y0033622*
X0063386Y0033613*
X0063398Y0033606*
X0063410Y0033599*
X0063423Y0033593*
X0063437Y0033588*
X0063450Y0033585*
X0063464Y0033582*
X0063478Y0033580*
X0063492Y0033579*
X0063507*
X0063521Y0033580*
X0063535Y0033582*
X0063549Y0033585*
X0063562Y0033588*
X0063576Y0033593*
X0063588Y0033599*
X0063601Y0033606*
X0063613Y0033613*
X0063624Y0033622*
X0063635Y0033631*
X0063646Y0033640*
X0063655Y0033651*
X0063664Y0033662*
X0063672Y0033674*
X0063679Y0033686*
X0063685Y0033699*
X0063690Y0033712*
X0063695Y0033726*
X0063698Y0033739*
X0063701Y0033753*
X0063702Y0033767*
X0063702Y0033782*
X0066242D02*
D01*
X0066242Y0033796*
X0066241Y0033810*
X0066238Y0033824*
X0066235Y0033837*
X0066230Y0033851*
X0066225Y0033864*
X0066219Y0033877*
X0066212Y0033889*
X0066204Y0033901*
X0066195Y0033912*
X0066186Y0033922*
X0066175Y0033932*
X0066164Y0033941*
X0066153Y0033950*
X0066141Y0033957*
X0066128Y0033964*
X0066116Y0033970*
X0066102Y0033975*
X0066089Y0033978*
X0066075Y0033981*
X0066061Y0033983*
X0066047Y0033984*
X0066032*
X0066018Y0033983*
X0066004Y0033981*
X0065990Y0033978*
X0065977Y0033975*
X0065963Y0033970*
X0065950Y0033964*
X0065938Y0033957*
X0065926Y0033950*
X0065915Y0033941*
X0065904Y0033932*
X0065893Y0033922*
X0065884Y0033912*
X0065875Y0033901*
X0065867Y0033889*
X0065860Y0033877*
X0065854Y0033864*
X0065849Y0033851*
X0065844Y0033837*
X0065841Y0033824*
X0065838Y0033810*
X0065837Y0033796*
X0065836Y0033782*
X0065837Y0033767*
X0065838Y0033753*
X0065841Y0033739*
X0065844Y0033726*
X0065849Y0033712*
X0065854Y0033699*
X0065860Y0033686*
X0065867Y0033674*
X0065875Y0033662*
X0065884Y0033651*
X0065893Y0033640*
X0065904Y0033631*
X0065915Y0033622*
X0065926Y0033613*
X0065938Y0033606*
X0065950Y0033599*
X0065963Y0033593*
X0065977Y0033588*
X0065990Y0033585*
X0066004Y0033582*
X0066018Y0033580*
X0066032Y0033579*
X0066047*
X0066061Y0033580*
X0066075Y0033582*
X0066089Y0033585*
X0066102Y0033588*
X0066116Y0033593*
X0066128Y0033599*
X0066141Y0033606*
X0066153Y0033613*
X0066164Y0033622*
X0066175Y0033631*
X0066186Y0033640*
X0066195Y0033651*
X0066204Y0033662*
X0066212Y0033674*
X0066219Y0033686*
X0066225Y0033699*
X0066230Y0033712*
X0066235Y0033726*
X0066238Y0033739*
X0066241Y0033753*
X0066242Y0033767*
X0066242Y0033782*
X0068782D02*
D01*
X0068782Y0033796*
X0068781Y0033810*
X0068778Y0033824*
X0068775Y0033837*
X0068770Y0033851*
X0068765Y0033864*
X0068759Y0033877*
X0068752Y0033889*
X0068744Y0033901*
X0068735Y0033912*
X0068726Y0033922*
X0068715Y0033932*
X0068704Y0033941*
X0068693Y0033950*
X0068681Y0033957*
X0068668Y0033964*
X0068656Y0033970*
X0068642Y0033975*
X0068629Y0033978*
X0068615Y0033981*
X0068601Y0033983*
X0068587Y0033984*
X0068572*
X0068558Y0033983*
X0068544Y0033981*
X0068530Y0033978*
X0068517Y0033975*
X0068503Y0033970*
X0068490Y0033964*
X0068478Y0033957*
X0068466Y0033950*
X0068455Y0033941*
X0068444Y0033932*
X0068433Y0033922*
X0068424Y0033912*
X0068415Y0033901*
X0068407Y0033889*
X0068400Y0033877*
X0068394Y0033864*
X0068389Y0033851*
X0068384Y0033837*
X0068381Y0033824*
X0068378Y0033810*
X0068377Y0033796*
X0068376Y0033782*
X0068377Y0033767*
X0068378Y0033753*
X0068381Y0033739*
X0068384Y0033726*
X0068389Y0033712*
X0068394Y0033699*
X0068400Y0033686*
X0068407Y0033674*
X0068415Y0033662*
X0068424Y0033651*
X0068433Y0033640*
X0068444Y0033631*
X0068455Y0033622*
X0068466Y0033613*
X0068478Y0033606*
X0068490Y0033599*
X0068503Y0033593*
X0068517Y0033588*
X0068530Y0033585*
X0068544Y0033582*
X0068558Y0033580*
X0068572Y0033579*
X0068587*
X0068601Y0033580*
X0068615Y0033582*
X0068629Y0033585*
X0068642Y0033588*
X0068656Y0033593*
X0068668Y0033599*
X0068681Y0033606*
X0068693Y0033613*
X0068704Y0033622*
X0068715Y0033631*
X0068726Y0033640*
X0068735Y0033651*
X0068744Y0033662*
X0068752Y0033674*
X0068759Y0033686*
X0068765Y0033699*
X0068770Y0033712*
X0068775Y0033726*
X0068778Y0033739*
X0068781Y0033753*
X0068782Y0033767*
X0068782Y0033782*
X0076402D02*
D01*
X0076402Y0033796*
X0076401Y0033810*
X0076398Y0033824*
X0076395Y0033837*
X0076390Y0033851*
X0076385Y0033864*
X0076379Y0033877*
X0076372Y0033889*
X0076364Y0033901*
X0076355Y0033912*
X0076346Y0033922*
X0076335Y0033932*
X0076324Y0033941*
X0076313Y0033950*
X0076301Y0033957*
X0076288Y0033964*
X0076276Y0033970*
X0076262Y0033975*
X0076249Y0033978*
X0076235Y0033981*
X0076221Y0033983*
X0076207Y0033984*
X0076192*
X0076178Y0033983*
X0076164Y0033981*
X0076150Y0033978*
X0076137Y0033975*
X0076123Y0033970*
X0076110Y0033964*
X0076098Y0033957*
X0076086Y0033950*
X0076075Y0033941*
X0076064Y0033932*
X0076053Y0033922*
X0076044Y0033912*
X0076035Y0033901*
X0076027Y0033889*
X0076020Y0033877*
X0076014Y0033864*
X0076009Y0033851*
X0076004Y0033837*
X0076001Y0033824*
X0075998Y0033810*
X0075997Y0033796*
X0075996Y0033782*
X0075997Y0033767*
X0075998Y0033753*
X0076001Y0033739*
X0076004Y0033726*
X0076009Y0033712*
X0076014Y0033699*
X0076020Y0033686*
X0076027Y0033674*
X0076035Y0033662*
X0076044Y0033651*
X0076053Y0033640*
X0076064Y0033631*
X0076075Y0033622*
X0076086Y0033613*
X0076098Y0033606*
X0076110Y0033599*
X0076123Y0033593*
X0076137Y0033588*
X0076150Y0033585*
X0076164Y0033582*
X0076178Y0033580*
X0076192Y0033579*
X0076207*
X0076221Y0033580*
X0076235Y0033582*
X0076249Y0033585*
X0076262Y0033588*
X0076276Y0033593*
X0076288Y0033599*
X0076301Y0033606*
X0076313Y0033613*
X0076324Y0033622*
X0076335Y0033631*
X0076346Y0033640*
X0076355Y0033651*
X0076364Y0033662*
X0076372Y0033674*
X0076379Y0033686*
X0076385Y0033699*
X0076390Y0033712*
X0076395Y0033726*
X0076398Y0033739*
X0076401Y0033753*
X0076402Y0033767*
X0076402Y0033782*
X0089102Y0082042D02*
D01*
X0089102Y0082056*
X0089101Y0082070*
X0089098Y0082084*
X0089095Y0082097*
X0089090Y0082111*
X0089085Y0082124*
X0089079Y0082137*
X0089072Y0082149*
X0089064Y0082161*
X0089055Y0082172*
X0089046Y0082182*
X0089035Y0082192*
X0089024Y0082201*
X0089013Y0082210*
X0089001Y0082217*
X0088988Y0082224*
X0088976Y0082230*
X0088962Y0082235*
X0088949Y0082238*
X0088935Y0082241*
X0088921Y0082243*
X0088907Y0082244*
X0088892*
X0088878Y0082243*
X0088864Y0082241*
X0088850Y0082238*
X0088837Y0082235*
X0088823Y0082230*
X0088810Y0082224*
X0088798Y0082217*
X0088786Y0082210*
X0088775Y0082201*
X0088764Y0082192*
X0088753Y0082182*
X0088744Y0082172*
X0088735Y0082161*
X0088727Y0082149*
X0088720Y0082137*
X0088714Y0082124*
X0088709Y0082111*
X0088704Y0082097*
X0088701Y0082084*
X0088698Y0082070*
X0088697Y0082056*
X0088696Y0082042*
X0088697Y0082027*
X0088698Y0082013*
X0088701Y0081999*
X0088704Y0081986*
X0088709Y0081972*
X0088714Y0081959*
X0088720Y0081946*
X0088727Y0081934*
X0088735Y0081922*
X0088744Y0081911*
X0088753Y0081900*
X0088764Y0081891*
X0088775Y0081882*
X0088786Y0081873*
X0088798Y0081866*
X0088810Y0081859*
X0088823Y0081853*
X0088837Y0081848*
X0088850Y0081845*
X0088864Y0081842*
X0088878Y0081840*
X0088892Y0081839*
X0088907*
X0088921Y0081840*
X0088935Y0081842*
X0088949Y0081845*
X0088962Y0081848*
X0088976Y0081853*
X0088988Y0081859*
X0089001Y0081866*
X0089013Y0081873*
X0089024Y0081882*
X0089035Y0081891*
X0089046Y0081900*
X0089055Y0081911*
X0089064Y0081922*
X0089072Y0081934*
X0089079Y0081946*
X0089085Y0081959*
X0089090Y0081972*
X0089095Y0081986*
X0089098Y0081999*
X0089101Y0082013*
X0089102Y0082027*
X0089102Y0082042*
X0091642D02*
D01*
X0091642Y0082056*
X0091641Y0082070*
X0091638Y0082084*
X0091635Y0082097*
X0091630Y0082111*
X0091625Y0082124*
X0091619Y0082137*
X0091612Y0082149*
X0091604Y0082161*
X0091595Y0082172*
X0091586Y0082182*
X0091575Y0082192*
X0091564Y0082201*
X0091553Y0082210*
X0091541Y0082217*
X0091528Y0082224*
X0091516Y0082230*
X0091502Y0082235*
X0091489Y0082238*
X0091475Y0082241*
X0091461Y0082243*
X0091447Y0082244*
X0091432*
X0091418Y0082243*
X0091404Y0082241*
X0091390Y0082238*
X0091377Y0082235*
X0091363Y0082230*
X0091350Y0082224*
X0091338Y0082217*
X0091326Y0082210*
X0091315Y0082201*
X0091304Y0082192*
X0091293Y0082182*
X0091284Y0082172*
X0091275Y0082161*
X0091267Y0082149*
X0091260Y0082137*
X0091254Y0082124*
X0091249Y0082111*
X0091244Y0082097*
X0091241Y0082084*
X0091238Y0082070*
X0091237Y0082056*
X0091236Y0082042*
X0091237Y0082027*
X0091238Y0082013*
X0091241Y0081999*
X0091244Y0081986*
X0091249Y0081972*
X0091254Y0081959*
X0091260Y0081946*
X0091267Y0081934*
X0091275Y0081922*
X0091284Y0081911*
X0091293Y0081900*
X0091304Y0081891*
X0091315Y0081882*
X0091326Y0081873*
X0091338Y0081866*
X0091350Y0081859*
X0091363Y0081853*
X0091377Y0081848*
X0091390Y0081845*
X0091404Y0081842*
X0091418Y0081840*
X0091432Y0081839*
X0091447*
X0091461Y0081840*
X0091475Y0081842*
X0091489Y0081845*
X0091502Y0081848*
X0091516Y0081853*
X0091528Y0081859*
X0091541Y0081866*
X0091553Y0081873*
X0091564Y0081882*
X0091575Y0081891*
X0091586Y0081900*
X0091595Y0081911*
X0091604Y0081922*
X0091612Y0081934*
X0091619Y0081946*
X0091625Y0081959*
X0091630Y0081972*
X0091635Y0081986*
X0091638Y0081999*
X0091641Y0082013*
X0091642Y0082027*
X0091642Y0082042*
X0076402D02*
D01*
X0076402Y0082056*
X0076401Y0082070*
X0076398Y0082084*
X0076395Y0082097*
X0076390Y0082111*
X0076385Y0082124*
X0076379Y0082137*
X0076372Y0082149*
X0076364Y0082161*
X0076355Y0082172*
X0076346Y0082182*
X0076335Y0082192*
X0076324Y0082201*
X0076313Y0082210*
X0076301Y0082217*
X0076288Y0082224*
X0076276Y0082230*
X0076262Y0082235*
X0076249Y0082238*
X0076235Y0082241*
X0076221Y0082243*
X0076207Y0082244*
X0076192*
X0076178Y0082243*
X0076164Y0082241*
X0076150Y0082238*
X0076137Y0082235*
X0076123Y0082230*
X0076110Y0082224*
X0076098Y0082217*
X0076086Y0082210*
X0076075Y0082201*
X0076064Y0082192*
X0076053Y0082182*
X0076044Y0082172*
X0076035Y0082161*
X0076027Y0082149*
X0076020Y0082137*
X0076014Y0082124*
X0076009Y0082111*
X0076004Y0082097*
X0076001Y0082084*
X0075998Y0082070*
X0075997Y0082056*
X0075996Y0082042*
X0075997Y0082027*
X0075998Y0082013*
X0076001Y0081999*
X0076004Y0081986*
X0076009Y0081972*
X0076014Y0081959*
X0076020Y0081946*
X0076027Y0081934*
X0076035Y0081922*
X0076044Y0081911*
X0076053Y0081900*
X0076064Y0081891*
X0076075Y0081882*
X0076086Y0081873*
X0076098Y0081866*
X0076110Y0081859*
X0076123Y0081853*
X0076137Y0081848*
X0076150Y0081845*
X0076164Y0081842*
X0076178Y0081840*
X0076192Y0081839*
X0076207*
X0076221Y0081840*
X0076235Y0081842*
X0076249Y0081845*
X0076262Y0081848*
X0076276Y0081853*
X0076288Y0081859*
X0076301Y0081866*
X0076313Y0081873*
X0076324Y0081882*
X0076335Y0081891*
X0076346Y0081900*
X0076355Y0081911*
X0076364Y0081922*
X0076372Y0081934*
X0076379Y0081946*
X0076385Y0081959*
X0076390Y0081972*
X0076395Y0081986*
X0076398Y0081999*
X0076401Y0082013*
X0076402Y0082027*
X0076402Y0082042*
X0078942D02*
D01*
X0078942Y0082056*
X0078941Y0082070*
X0078938Y0082084*
X0078935Y0082097*
X0078930Y0082111*
X0078925Y0082124*
X0078919Y0082137*
X0078912Y0082149*
X0078904Y0082161*
X0078895Y0082172*
X0078886Y0082182*
X0078875Y0082192*
X0078864Y0082201*
X0078853Y0082210*
X0078841Y0082217*
X0078828Y0082224*
X0078816Y0082230*
X0078802Y0082235*
X0078789Y0082238*
X0078775Y0082241*
X0078761Y0082243*
X0078747Y0082244*
X0078732*
X0078718Y0082243*
X0078704Y0082241*
X0078690Y0082238*
X0078677Y0082235*
X0078663Y0082230*
X0078650Y0082224*
X0078638Y0082217*
X0078626Y0082210*
X0078615Y0082201*
X0078604Y0082192*
X0078593Y0082182*
X0078584Y0082172*
X0078575Y0082161*
X0078567Y0082149*
X0078560Y0082137*
X0078554Y0082124*
X0078549Y0082111*
X0078544Y0082097*
X0078541Y0082084*
X0078538Y0082070*
X0078537Y0082056*
X0078536Y0082042*
X0078537Y0082027*
X0078538Y0082013*
X0078541Y0081999*
X0078544Y0081986*
X0078549Y0081972*
X0078554Y0081959*
X0078560Y0081946*
X0078567Y0081934*
X0078575Y0081922*
X0078584Y0081911*
X0078593Y0081900*
X0078604Y0081891*
X0078615Y0081882*
X0078626Y0081873*
X0078638Y0081866*
X0078650Y0081859*
X0078663Y0081853*
X0078677Y0081848*
X0078690Y0081845*
X0078704Y0081842*
X0078718Y0081840*
X0078732Y0081839*
X0078747*
X0078761Y0081840*
X0078775Y0081842*
X0078789Y0081845*
X0078802Y0081848*
X0078816Y0081853*
X0078828Y0081859*
X0078841Y0081866*
X0078853Y0081873*
X0078864Y0081882*
X0078875Y0081891*
X0078886Y0081900*
X0078895Y0081911*
X0078904Y0081922*
X0078912Y0081934*
X0078919Y0081946*
X0078925Y0081959*
X0078930Y0081972*
X0078935Y0081986*
X0078938Y0081999*
X0078941Y0082013*
X0078942Y0082027*
X0078942Y0082042*
X0081482D02*
D01*
X0081482Y0082056*
X0081481Y0082070*
X0081478Y0082084*
X0081475Y0082097*
X0081470Y0082111*
X0081465Y0082124*
X0081459Y0082137*
X0081452Y0082149*
X0081444Y0082161*
X0081435Y0082172*
X0081426Y0082182*
X0081415Y0082192*
X0081404Y0082201*
X0081393Y0082210*
X0081381Y0082217*
X0081368Y0082224*
X0081356Y0082230*
X0081342Y0082235*
X0081329Y0082238*
X0081315Y0082241*
X0081301Y0082243*
X0081287Y0082244*
X0081272*
X0081258Y0082243*
X0081244Y0082241*
X0081230Y0082238*
X0081217Y0082235*
X0081203Y0082230*
X0081190Y0082224*
X0081178Y0082217*
X0081166Y0082210*
X0081155Y0082201*
X0081144Y0082192*
X0081133Y0082182*
X0081124Y0082172*
X0081115Y0082161*
X0081107Y0082149*
X0081100Y0082137*
X0081094Y0082124*
X0081089Y0082111*
X0081084Y0082097*
X0081081Y0082084*
X0081078Y0082070*
X0081077Y0082056*
X0081076Y0082042*
X0081077Y0082027*
X0081078Y0082013*
X0081081Y0081999*
X0081084Y0081986*
X0081089Y0081972*
X0081094Y0081959*
X0081100Y0081946*
X0081107Y0081934*
X0081115Y0081922*
X0081124Y0081911*
X0081133Y0081900*
X0081144Y0081891*
X0081155Y0081882*
X0081166Y0081873*
X0081178Y0081866*
X0081190Y0081859*
X0081203Y0081853*
X0081217Y0081848*
X0081230Y0081845*
X0081244Y0081842*
X0081258Y0081840*
X0081272Y0081839*
X0081287*
X0081301Y0081840*
X0081315Y0081842*
X0081329Y0081845*
X0081342Y0081848*
X0081356Y0081853*
X0081368Y0081859*
X0081381Y0081866*
X0081393Y0081873*
X0081404Y0081882*
X0081415Y0081891*
X0081426Y0081900*
X0081435Y0081911*
X0081444Y0081922*
X0081452Y0081934*
X0081459Y0081946*
X0081465Y0081959*
X0081470Y0081972*
X0081475Y0081986*
X0081478Y0081999*
X0081481Y0082013*
X0081482Y0082027*
X0081482Y0082042*
X0084022D02*
D01*
X0084022Y0082056*
X0084021Y0082070*
X0084018Y0082084*
X0084015Y0082097*
X0084010Y0082111*
X0084005Y0082124*
X0083999Y0082137*
X0083992Y0082149*
X0083984Y0082161*
X0083975Y0082172*
X0083966Y0082182*
X0083955Y0082192*
X0083944Y0082201*
X0083933Y0082210*
X0083921Y0082217*
X0083908Y0082224*
X0083896Y0082230*
X0083882Y0082235*
X0083869Y0082238*
X0083855Y0082241*
X0083841Y0082243*
X0083827Y0082244*
X0083812*
X0083798Y0082243*
X0083784Y0082241*
X0083770Y0082238*
X0083757Y0082235*
X0083743Y0082230*
X0083730Y0082224*
X0083718Y0082217*
X0083706Y0082210*
X0083695Y0082201*
X0083684Y0082192*
X0083673Y0082182*
X0083664Y0082172*
X0083655Y0082161*
X0083647Y0082149*
X0083640Y0082137*
X0083634Y0082124*
X0083629Y0082111*
X0083624Y0082097*
X0083621Y0082084*
X0083618Y0082070*
X0083617Y0082056*
X0083616Y0082042*
X0083617Y0082027*
X0083618Y0082013*
X0083621Y0081999*
X0083624Y0081986*
X0083629Y0081972*
X0083634Y0081959*
X0083640Y0081946*
X0083647Y0081934*
X0083655Y0081922*
X0083664Y0081911*
X0083673Y0081900*
X0083684Y0081891*
X0083695Y0081882*
X0083706Y0081873*
X0083718Y0081866*
X0083730Y0081859*
X0083743Y0081853*
X0083757Y0081848*
X0083770Y0081845*
X0083784Y0081842*
X0083798Y0081840*
X0083812Y0081839*
X0083827*
X0083841Y0081840*
X0083855Y0081842*
X0083869Y0081845*
X0083882Y0081848*
X0083896Y0081853*
X0083908Y0081859*
X0083921Y0081866*
X0083933Y0081873*
X0083944Y0081882*
X0083955Y0081891*
X0083966Y0081900*
X0083975Y0081911*
X0083984Y0081922*
X0083992Y0081934*
X0083999Y0081946*
X0084005Y0081959*
X0084010Y0081972*
X0084015Y0081986*
X0084018Y0081999*
X0084021Y0082013*
X0084022Y0082027*
X0084022Y0082042*
X0086562D02*
D01*
X0086562Y0082056*
X0086561Y0082070*
X0086558Y0082084*
X0086555Y0082097*
X0086550Y0082111*
X0086545Y0082124*
X0086539Y0082137*
X0086532Y0082149*
X0086524Y0082161*
X0086515Y0082172*
X0086506Y0082182*
X0086495Y0082192*
X0086484Y0082201*
X0086473Y0082210*
X0086461Y0082217*
X0086448Y0082224*
X0086436Y0082230*
X0086422Y0082235*
X0086409Y0082238*
X0086395Y0082241*
X0086381Y0082243*
X0086367Y0082244*
X0086352*
X0086338Y0082243*
X0086324Y0082241*
X0086310Y0082238*
X0086297Y0082235*
X0086283Y0082230*
X0086270Y0082224*
X0086258Y0082217*
X0086246Y0082210*
X0086235Y0082201*
X0086224Y0082192*
X0086213Y0082182*
X0086204Y0082172*
X0086195Y0082161*
X0086187Y0082149*
X0086180Y0082137*
X0086174Y0082124*
X0086169Y0082111*
X0086164Y0082097*
X0086161Y0082084*
X0086158Y0082070*
X0086157Y0082056*
X0086156Y0082042*
X0086157Y0082027*
X0086158Y0082013*
X0086161Y0081999*
X0086164Y0081986*
X0086169Y0081972*
X0086174Y0081959*
X0086180Y0081946*
X0086187Y0081934*
X0086195Y0081922*
X0086204Y0081911*
X0086213Y0081900*
X0086224Y0081891*
X0086235Y0081882*
X0086246Y0081873*
X0086258Y0081866*
X0086270Y0081859*
X0086283Y0081853*
X0086297Y0081848*
X0086310Y0081845*
X0086324Y0081842*
X0086338Y0081840*
X0086352Y0081839*
X0086367*
X0086381Y0081840*
X0086395Y0081842*
X0086409Y0081845*
X0086422Y0081848*
X0086436Y0081853*
X0086448Y0081859*
X0086461Y0081866*
X0086473Y0081873*
X0086484Y0081882*
X0086495Y0081891*
X0086506Y0081900*
X0086515Y0081911*
X0086524Y0081922*
X0086532Y0081934*
X0086539Y0081946*
X0086545Y0081959*
X0086550Y0081972*
X0086555Y0081986*
X0086558Y0081999*
X0086561Y0082013*
X0086562Y0082027*
X0086562Y0082042*
X0094182D02*
D01*
X0094182Y0082056*
X0094181Y0082070*
X0094178Y0082084*
X0094175Y0082097*
X0094170Y0082111*
X0094165Y0082124*
X0094159Y0082137*
X0094152Y0082149*
X0094144Y0082161*
X0094135Y0082172*
X0094126Y0082182*
X0094115Y0082192*
X0094104Y0082201*
X0094093Y0082210*
X0094081Y0082217*
X0094068Y0082224*
X0094056Y0082230*
X0094042Y0082235*
X0094029Y0082238*
X0094015Y0082241*
X0094001Y0082243*
X0093987Y0082244*
X0093972*
X0093958Y0082243*
X0093944Y0082241*
X0093930Y0082238*
X0093917Y0082235*
X0093903Y0082230*
X0093890Y0082224*
X0093878Y0082217*
X0093866Y0082210*
X0093855Y0082201*
X0093844Y0082192*
X0093833Y0082182*
X0093824Y0082172*
X0093815Y0082161*
X0093807Y0082149*
X0093800Y0082137*
X0093794Y0082124*
X0093789Y0082111*
X0093784Y0082097*
X0093781Y0082084*
X0093778Y0082070*
X0093777Y0082056*
X0093776Y0082042*
X0093777Y0082027*
X0093778Y0082013*
X0093781Y0081999*
X0093784Y0081986*
X0093789Y0081972*
X0093794Y0081959*
X0093800Y0081946*
X0093807Y0081934*
X0093815Y0081922*
X0093824Y0081911*
X0093833Y0081900*
X0093844Y0081891*
X0093855Y0081882*
X0093866Y0081873*
X0093878Y0081866*
X0093890Y0081859*
X0093903Y0081853*
X0093917Y0081848*
X0093930Y0081845*
X0093944Y0081842*
X0093958Y0081840*
X0093972Y0081839*
X0093987*
X0094001Y0081840*
X0094015Y0081842*
X0094029Y0081845*
X0094042Y0081848*
X0094056Y0081853*
X0094068Y0081859*
X0094081Y0081866*
X0094093Y0081873*
X0094104Y0081882*
X0094115Y0081891*
X0094126Y0081900*
X0094135Y0081911*
X0094144Y0081922*
X0094152Y0081934*
X0094159Y0081946*
X0094165Y0081959*
X0094170Y0081972*
X0094175Y0081986*
X0094178Y0081999*
X0094181Y0082013*
X0094182Y0082027*
X0094182Y0082042*
X0049478D02*
D01*
X0049478Y0082056*
X0049477Y0082070*
X0049474Y0082084*
X0049471Y0082097*
X0049466Y0082111*
X0049461Y0082124*
X0049455Y0082137*
X0049448Y0082149*
X0049440Y0082161*
X0049431Y0082172*
X0049422Y0082182*
X0049411Y0082192*
X0049400Y0082201*
X0049389Y0082210*
X0049377Y0082217*
X0049364Y0082224*
X0049352Y0082230*
X0049338Y0082235*
X0049325Y0082238*
X0049311Y0082241*
X0049297Y0082243*
X0049283Y0082244*
X0049268*
X0049254Y0082243*
X0049240Y0082241*
X0049226Y0082238*
X0049213Y0082235*
X0049199Y0082230*
X0049186Y0082224*
X0049174Y0082217*
X0049162Y0082210*
X0049151Y0082201*
X0049140Y0082192*
X0049129Y0082182*
X0049120Y0082172*
X0049111Y0082161*
X0049103Y0082149*
X0049096Y0082137*
X0049090Y0082124*
X0049085Y0082111*
X0049080Y0082097*
X0049077Y0082084*
X0049074Y0082070*
X0049073Y0082056*
X0049072Y0082042*
X0049073Y0082027*
X0049074Y0082013*
X0049077Y0081999*
X0049080Y0081986*
X0049085Y0081972*
X0049090Y0081959*
X0049096Y0081946*
X0049103Y0081934*
X0049111Y0081922*
X0049120Y0081911*
X0049129Y0081900*
X0049140Y0081891*
X0049151Y0081882*
X0049162Y0081873*
X0049174Y0081866*
X0049186Y0081859*
X0049199Y0081853*
X0049213Y0081848*
X0049226Y0081845*
X0049240Y0081842*
X0049254Y0081840*
X0049268Y0081839*
X0049283*
X0049297Y0081840*
X0049311Y0081842*
X0049325Y0081845*
X0049338Y0081848*
X0049352Y0081853*
X0049364Y0081859*
X0049377Y0081866*
X0049389Y0081873*
X0049400Y0081882*
X0049411Y0081891*
X0049422Y0081900*
X0049431Y0081911*
X0049440Y0081922*
X0049448Y0081934*
X0049455Y0081946*
X0049461Y0081959*
X0049466Y0081972*
X0049471Y0081986*
X0049474Y0081999*
X0049477Y0082013*
X0049478Y0082027*
X0049478Y0082042*
X0052018D02*
D01*
X0052018Y0082056*
X0052017Y0082070*
X0052014Y0082084*
X0052011Y0082097*
X0052006Y0082111*
X0052001Y0082124*
X0051995Y0082137*
X0051988Y0082149*
X0051980Y0082161*
X0051971Y0082172*
X0051962Y0082182*
X0051951Y0082192*
X0051940Y0082201*
X0051929Y0082210*
X0051917Y0082217*
X0051904Y0082224*
X0051892Y0082230*
X0051878Y0082235*
X0051865Y0082238*
X0051851Y0082241*
X0051837Y0082243*
X0051823Y0082244*
X0051808*
X0051794Y0082243*
X0051780Y0082241*
X0051766Y0082238*
X0051753Y0082235*
X0051739Y0082230*
X0051726Y0082224*
X0051714Y0082217*
X0051702Y0082210*
X0051691Y0082201*
X0051680Y0082192*
X0051669Y0082182*
X0051660Y0082172*
X0051651Y0082161*
X0051643Y0082149*
X0051636Y0082137*
X0051630Y0082124*
X0051625Y0082111*
X0051620Y0082097*
X0051617Y0082084*
X0051614Y0082070*
X0051613Y0082056*
X0051612Y0082042*
X0051613Y0082027*
X0051614Y0082013*
X0051617Y0081999*
X0051620Y0081986*
X0051625Y0081972*
X0051630Y0081959*
X0051636Y0081946*
X0051643Y0081934*
X0051651Y0081922*
X0051660Y0081911*
X0051669Y0081900*
X0051680Y0081891*
X0051691Y0081882*
X0051702Y0081873*
X0051714Y0081866*
X0051726Y0081859*
X0051739Y0081853*
X0051753Y0081848*
X0051766Y0081845*
X0051780Y0081842*
X0051794Y0081840*
X0051808Y0081839*
X0051823*
X0051837Y0081840*
X0051851Y0081842*
X0051865Y0081845*
X0051878Y0081848*
X0051892Y0081853*
X0051904Y0081859*
X0051917Y0081866*
X0051929Y0081873*
X0051940Y0081882*
X0051951Y0081891*
X0051962Y0081900*
X0051971Y0081911*
X0051980Y0081922*
X0051988Y0081934*
X0051995Y0081946*
X0052001Y0081959*
X0052006Y0081972*
X0052011Y0081986*
X0052014Y0081999*
X0052017Y0082013*
X0052018Y0082027*
X0052018Y0082042*
X0054558D02*
D01*
X0054558Y0082056*
X0054557Y0082070*
X0054554Y0082084*
X0054551Y0082097*
X0054546Y0082111*
X0054541Y0082124*
X0054535Y0082137*
X0054528Y0082149*
X0054520Y0082161*
X0054511Y0082172*
X0054502Y0082182*
X0054491Y0082192*
X0054480Y0082201*
X0054469Y0082210*
X0054457Y0082217*
X0054444Y0082224*
X0054432Y0082230*
X0054418Y0082235*
X0054405Y0082238*
X0054391Y0082241*
X0054377Y0082243*
X0054363Y0082244*
X0054348*
X0054334Y0082243*
X0054320Y0082241*
X0054306Y0082238*
X0054293Y0082235*
X0054279Y0082230*
X0054266Y0082224*
X0054254Y0082217*
X0054242Y0082210*
X0054231Y0082201*
X0054220Y0082192*
X0054209Y0082182*
X0054200Y0082172*
X0054191Y0082161*
X0054183Y0082149*
X0054176Y0082137*
X0054170Y0082124*
X0054165Y0082111*
X0054160Y0082097*
X0054157Y0082084*
X0054154Y0082070*
X0054153Y0082056*
X0054152Y0082042*
X0054153Y0082027*
X0054154Y0082013*
X0054157Y0081999*
X0054160Y0081986*
X0054165Y0081972*
X0054170Y0081959*
X0054176Y0081946*
X0054183Y0081934*
X0054191Y0081922*
X0054200Y0081911*
X0054209Y0081900*
X0054220Y0081891*
X0054231Y0081882*
X0054242Y0081873*
X0054254Y0081866*
X0054266Y0081859*
X0054279Y0081853*
X0054293Y0081848*
X0054306Y0081845*
X0054320Y0081842*
X0054334Y0081840*
X0054348Y0081839*
X0054363*
X0054377Y0081840*
X0054391Y0081842*
X0054405Y0081845*
X0054418Y0081848*
X0054432Y0081853*
X0054444Y0081859*
X0054457Y0081866*
X0054469Y0081873*
X0054480Y0081882*
X0054491Y0081891*
X0054502Y0081900*
X0054511Y0081911*
X0054520Y0081922*
X0054528Y0081934*
X0054535Y0081946*
X0054541Y0081959*
X0054546Y0081972*
X0054551Y0081986*
X0054554Y0081999*
X0054557Y0082013*
X0054558Y0082027*
X0054558Y0082042*
X0057098D02*
D01*
X0057098Y0082056*
X0057097Y0082070*
X0057094Y0082084*
X0057091Y0082097*
X0057086Y0082111*
X0057081Y0082124*
X0057075Y0082137*
X0057068Y0082149*
X0057060Y0082161*
X0057051Y0082172*
X0057042Y0082182*
X0057031Y0082192*
X0057020Y0082201*
X0057009Y0082210*
X0056997Y0082217*
X0056984Y0082224*
X0056972Y0082230*
X0056958Y0082235*
X0056945Y0082238*
X0056931Y0082241*
X0056917Y0082243*
X0056903Y0082244*
X0056888*
X0056874Y0082243*
X0056860Y0082241*
X0056846Y0082238*
X0056833Y0082235*
X0056819Y0082230*
X0056806Y0082224*
X0056794Y0082217*
X0056782Y0082210*
X0056771Y0082201*
X0056760Y0082192*
X0056749Y0082182*
X0056740Y0082172*
X0056731Y0082161*
X0056723Y0082149*
X0056716Y0082137*
X0056710Y0082124*
X0056705Y0082111*
X0056700Y0082097*
X0056697Y0082084*
X0056694Y0082070*
X0056693Y0082056*
X0056692Y0082042*
X0056693Y0082027*
X0056694Y0082013*
X0056697Y0081999*
X0056700Y0081986*
X0056705Y0081972*
X0056710Y0081959*
X0056716Y0081946*
X0056723Y0081934*
X0056731Y0081922*
X0056740Y0081911*
X0056749Y0081900*
X0056760Y0081891*
X0056771Y0081882*
X0056782Y0081873*
X0056794Y0081866*
X0056806Y0081859*
X0056819Y0081853*
X0056833Y0081848*
X0056846Y0081845*
X0056860Y0081842*
X0056874Y0081840*
X0056888Y0081839*
X0056903*
X0056917Y0081840*
X0056931Y0081842*
X0056945Y0081845*
X0056958Y0081848*
X0056972Y0081853*
X0056984Y0081859*
X0056997Y0081866*
X0057009Y0081873*
X0057020Y0081882*
X0057031Y0081891*
X0057042Y0081900*
X0057051Y0081911*
X0057060Y0081922*
X0057068Y0081934*
X0057075Y0081946*
X0057081Y0081959*
X0057086Y0081972*
X0057091Y0081986*
X0057094Y0081999*
X0057097Y0082013*
X0057098Y0082027*
X0057098Y0082042*
X0059638D02*
D01*
X0059638Y0082056*
X0059637Y0082070*
X0059634Y0082084*
X0059631Y0082097*
X0059626Y0082111*
X0059621Y0082124*
X0059615Y0082137*
X0059608Y0082149*
X0059600Y0082161*
X0059591Y0082172*
X0059582Y0082182*
X0059571Y0082192*
X0059560Y0082201*
X0059549Y0082210*
X0059537Y0082217*
X0059524Y0082224*
X0059512Y0082230*
X0059498Y0082235*
X0059485Y0082238*
X0059471Y0082241*
X0059457Y0082243*
X0059443Y0082244*
X0059428*
X0059414Y0082243*
X0059400Y0082241*
X0059386Y0082238*
X0059373Y0082235*
X0059359Y0082230*
X0059346Y0082224*
X0059334Y0082217*
X0059322Y0082210*
X0059311Y0082201*
X0059300Y0082192*
X0059289Y0082182*
X0059280Y0082172*
X0059271Y0082161*
X0059263Y0082149*
X0059256Y0082137*
X0059250Y0082124*
X0059245Y0082111*
X0059240Y0082097*
X0059237Y0082084*
X0059234Y0082070*
X0059233Y0082056*
X0059232Y0082042*
X0059233Y0082027*
X0059234Y0082013*
X0059237Y0081999*
X0059240Y0081986*
X0059245Y0081972*
X0059250Y0081959*
X0059256Y0081946*
X0059263Y0081934*
X0059271Y0081922*
X0059280Y0081911*
X0059289Y0081900*
X0059300Y0081891*
X0059311Y0081882*
X0059322Y0081873*
X0059334Y0081866*
X0059346Y0081859*
X0059359Y0081853*
X0059373Y0081848*
X0059386Y0081845*
X0059400Y0081842*
X0059414Y0081840*
X0059428Y0081839*
X0059443*
X0059457Y0081840*
X0059471Y0081842*
X0059485Y0081845*
X0059498Y0081848*
X0059512Y0081853*
X0059524Y0081859*
X0059537Y0081866*
X0059549Y0081873*
X0059560Y0081882*
X0059571Y0081891*
X0059582Y0081900*
X0059591Y0081911*
X0059600Y0081922*
X0059608Y0081934*
X0059615Y0081946*
X0059621Y0081959*
X0059626Y0081972*
X0059631Y0081986*
X0059634Y0081999*
X0059637Y0082013*
X0059638Y0082027*
X0059638Y0082042*
X0062178D02*
D01*
X0062178Y0082056*
X0062177Y0082070*
X0062174Y0082084*
X0062171Y0082097*
X0062166Y0082111*
X0062161Y0082124*
X0062155Y0082137*
X0062148Y0082149*
X0062140Y0082161*
X0062131Y0082172*
X0062122Y0082182*
X0062111Y0082192*
X0062100Y0082201*
X0062089Y0082210*
X0062077Y0082217*
X0062064Y0082224*
X0062052Y0082230*
X0062038Y0082235*
X0062025Y0082238*
X0062011Y0082241*
X0061997Y0082243*
X0061983Y0082244*
X0061968*
X0061954Y0082243*
X0061940Y0082241*
X0061926Y0082238*
X0061913Y0082235*
X0061899Y0082230*
X0061886Y0082224*
X0061874Y0082217*
X0061862Y0082210*
X0061851Y0082201*
X0061840Y0082192*
X0061829Y0082182*
X0061820Y0082172*
X0061811Y0082161*
X0061803Y0082149*
X0061796Y0082137*
X0061790Y0082124*
X0061785Y0082111*
X0061780Y0082097*
X0061777Y0082084*
X0061774Y0082070*
X0061773Y0082056*
X0061772Y0082042*
X0061773Y0082027*
X0061774Y0082013*
X0061777Y0081999*
X0061780Y0081986*
X0061785Y0081972*
X0061790Y0081959*
X0061796Y0081946*
X0061803Y0081934*
X0061811Y0081922*
X0061820Y0081911*
X0061829Y0081900*
X0061840Y0081891*
X0061851Y0081882*
X0061862Y0081873*
X0061874Y0081866*
X0061886Y0081859*
X0061899Y0081853*
X0061913Y0081848*
X0061926Y0081845*
X0061940Y0081842*
X0061954Y0081840*
X0061968Y0081839*
X0061983*
X0061997Y0081840*
X0062011Y0081842*
X0062025Y0081845*
X0062038Y0081848*
X0062052Y0081853*
X0062064Y0081859*
X0062077Y0081866*
X0062089Y0081873*
X0062100Y0081882*
X0062111Y0081891*
X0062122Y0081900*
X0062131Y0081911*
X0062140Y0081922*
X0062148Y0081934*
X0062155Y0081946*
X0062161Y0081959*
X0062166Y0081972*
X0062171Y0081986*
X0062174Y0081999*
X0062177Y0082013*
X0062178Y0082027*
X0062178Y0082042*
X0064718D02*
D01*
X0064718Y0082056*
X0064717Y0082070*
X0064714Y0082084*
X0064711Y0082097*
X0064706Y0082111*
X0064701Y0082124*
X0064695Y0082137*
X0064688Y0082149*
X0064680Y0082161*
X0064671Y0082172*
X0064662Y0082182*
X0064651Y0082192*
X0064640Y0082201*
X0064629Y0082210*
X0064617Y0082217*
X0064604Y0082224*
X0064592Y0082230*
X0064578Y0082235*
X0064565Y0082238*
X0064551Y0082241*
X0064537Y0082243*
X0064523Y0082244*
X0064508*
X0064494Y0082243*
X0064480Y0082241*
X0064466Y0082238*
X0064453Y0082235*
X0064439Y0082230*
X0064426Y0082224*
X0064414Y0082217*
X0064402Y0082210*
X0064391Y0082201*
X0064380Y0082192*
X0064369Y0082182*
X0064360Y0082172*
X0064351Y0082161*
X0064343Y0082149*
X0064336Y0082137*
X0064330Y0082124*
X0064325Y0082111*
X0064320Y0082097*
X0064317Y0082084*
X0064314Y0082070*
X0064313Y0082056*
X0064312Y0082042*
X0064313Y0082027*
X0064314Y0082013*
X0064317Y0081999*
X0064320Y0081986*
X0064325Y0081972*
X0064330Y0081959*
X0064336Y0081946*
X0064343Y0081934*
X0064351Y0081922*
X0064360Y0081911*
X0064369Y0081900*
X0064380Y0081891*
X0064391Y0081882*
X0064402Y0081873*
X0064414Y0081866*
X0064426Y0081859*
X0064439Y0081853*
X0064453Y0081848*
X0064466Y0081845*
X0064480Y0081842*
X0064494Y0081840*
X0064508Y0081839*
X0064523*
X0064537Y0081840*
X0064551Y0081842*
X0064565Y0081845*
X0064578Y0081848*
X0064592Y0081853*
X0064604Y0081859*
X0064617Y0081866*
X0064629Y0081873*
X0064640Y0081882*
X0064651Y0081891*
X0064662Y0081900*
X0064671Y0081911*
X0064680Y0081922*
X0064688Y0081934*
X0064695Y0081946*
X0064701Y0081959*
X0064706Y0081972*
X0064711Y0081986*
X0064714Y0081999*
X0064717Y0082013*
X0064718Y0082027*
X0064718Y0082042*
X0067258D02*
D01*
X0067258Y0082056*
X0067257Y0082070*
X0067254Y0082084*
X0067251Y0082097*
X0067246Y0082111*
X0067241Y0082124*
X0067235Y0082137*
X0067228Y0082149*
X0067220Y0082161*
X0067211Y0082172*
X0067202Y0082182*
X0067191Y0082192*
X0067180Y0082201*
X0067169Y0082210*
X0067157Y0082217*
X0067144Y0082224*
X0067132Y0082230*
X0067118Y0082235*
X0067105Y0082238*
X0067091Y0082241*
X0067077Y0082243*
X0067063Y0082244*
X0067048*
X0067034Y0082243*
X0067020Y0082241*
X0067006Y0082238*
X0066993Y0082235*
X0066979Y0082230*
X0066966Y0082224*
X0066954Y0082217*
X0066942Y0082210*
X0066931Y0082201*
X0066920Y0082192*
X0066909Y0082182*
X0066900Y0082172*
X0066891Y0082161*
X0066883Y0082149*
X0066876Y0082137*
X0066870Y0082124*
X0066865Y0082111*
X0066860Y0082097*
X0066857Y0082084*
X0066854Y0082070*
X0066853Y0082056*
X0066852Y0082042*
X0066853Y0082027*
X0066854Y0082013*
X0066857Y0081999*
X0066860Y0081986*
X0066865Y0081972*
X0066870Y0081959*
X0066876Y0081946*
X0066883Y0081934*
X0066891Y0081922*
X0066900Y0081911*
X0066909Y0081900*
X0066920Y0081891*
X0066931Y0081882*
X0066942Y0081873*
X0066954Y0081866*
X0066966Y0081859*
X0066979Y0081853*
X0066993Y0081848*
X0067006Y0081845*
X0067020Y0081842*
X0067034Y0081840*
X0067048Y0081839*
X0067063*
X0067077Y0081840*
X0067091Y0081842*
X0067105Y0081845*
X0067118Y0081848*
X0067132Y0081853*
X0067144Y0081859*
X0067157Y0081866*
X0067169Y0081873*
X0067180Y0081882*
X0067191Y0081891*
X0067202Y0081900*
X0067211Y0081911*
X0067220Y0081922*
X0067228Y0081934*
X0067235Y0081946*
X0067241Y0081959*
X0067246Y0081972*
X0067251Y0081986*
X0067254Y0081999*
X0067257Y0082013*
X0067258Y0082027*
X0067258Y0082042*
X0069798D02*
D01*
X0069798Y0082056*
X0069797Y0082070*
X0069794Y0082084*
X0069791Y0082097*
X0069786Y0082111*
X0069781Y0082124*
X0069775Y0082137*
X0069768Y0082149*
X0069760Y0082161*
X0069751Y0082172*
X0069742Y0082182*
X0069731Y0082192*
X0069720Y0082201*
X0069709Y0082210*
X0069697Y0082217*
X0069684Y0082224*
X0069672Y0082230*
X0069658Y0082235*
X0069645Y0082238*
X0069631Y0082241*
X0069617Y0082243*
X0069603Y0082244*
X0069588*
X0069574Y0082243*
X0069560Y0082241*
X0069546Y0082238*
X0069533Y0082235*
X0069519Y0082230*
X0069506Y0082224*
X0069494Y0082217*
X0069482Y0082210*
X0069471Y0082201*
X0069460Y0082192*
X0069449Y0082182*
X0069440Y0082172*
X0069431Y0082161*
X0069423Y0082149*
X0069416Y0082137*
X0069410Y0082124*
X0069405Y0082111*
X0069400Y0082097*
X0069397Y0082084*
X0069394Y0082070*
X0069393Y0082056*
X0069392Y0082042*
X0069393Y0082027*
X0069394Y0082013*
X0069397Y0081999*
X0069400Y0081986*
X0069405Y0081972*
X0069410Y0081959*
X0069416Y0081946*
X0069423Y0081934*
X0069431Y0081922*
X0069440Y0081911*
X0069449Y0081900*
X0069460Y0081891*
X0069471Y0081882*
X0069482Y0081873*
X0069494Y0081866*
X0069506Y0081859*
X0069519Y0081853*
X0069533Y0081848*
X0069546Y0081845*
X0069560Y0081842*
X0069574Y0081840*
X0069588Y0081839*
X0069603*
X0069617Y0081840*
X0069631Y0081842*
X0069645Y0081845*
X0069658Y0081848*
X0069672Y0081853*
X0069684Y0081859*
X0069697Y0081866*
X0069709Y0081873*
X0069720Y0081882*
X0069731Y0081891*
X0069742Y0081900*
X0069751Y0081911*
X0069760Y0081922*
X0069768Y0081934*
X0069775Y0081946*
X0069781Y0081959*
X0069786Y0081972*
X0069791Y0081986*
X0069794Y0081999*
X0069797Y0082013*
X0069798Y0082027*
X0069798Y0082042*
X0072338D02*
D01*
X0072338Y0082056*
X0072337Y0082070*
X0072334Y0082084*
X0072331Y0082097*
X0072326Y0082111*
X0072321Y0082124*
X0072315Y0082137*
X0072308Y0082149*
X0072300Y0082161*
X0072291Y0082172*
X0072282Y0082182*
X0072271Y0082192*
X0072260Y0082201*
X0072249Y0082210*
X0072237Y0082217*
X0072224Y0082224*
X0072212Y0082230*
X0072198Y0082235*
X0072185Y0082238*
X0072171Y0082241*
X0072157Y0082243*
X0072143Y0082244*
X0072128*
X0072114Y0082243*
X0072100Y0082241*
X0072086Y0082238*
X0072073Y0082235*
X0072059Y0082230*
X0072046Y0082224*
X0072034Y0082217*
X0072022Y0082210*
X0072011Y0082201*
X0072000Y0082192*
X0071989Y0082182*
X0071980Y0082172*
X0071971Y0082161*
X0071963Y0082149*
X0071956Y0082137*
X0071950Y0082124*
X0071945Y0082111*
X0071940Y0082097*
X0071937Y0082084*
X0071934Y0082070*
X0071933Y0082056*
X0071932Y0082042*
X0071933Y0082027*
X0071934Y0082013*
X0071937Y0081999*
X0071940Y0081986*
X0071945Y0081972*
X0071950Y0081959*
X0071956Y0081946*
X0071963Y0081934*
X0071971Y0081922*
X0071980Y0081911*
X0071989Y0081900*
X0072000Y0081891*
X0072011Y0081882*
X0072022Y0081873*
X0072034Y0081866*
X0072046Y0081859*
X0072059Y0081853*
X0072073Y0081848*
X0072086Y0081845*
X0072100Y0081842*
X0072114Y0081840*
X0072128Y0081839*
X0072143*
X0072157Y0081840*
X0072171Y0081842*
X0072185Y0081845*
X0072198Y0081848*
X0072212Y0081853*
X0072224Y0081859*
X0072237Y0081866*
X0072249Y0081873*
X0072260Y0081882*
X0072271Y0081891*
X0072282Y0081900*
X0072291Y0081911*
X0072300Y0081922*
X0072308Y0081934*
X0072315Y0081946*
X0072321Y0081959*
X0072326Y0081972*
X0072331Y0081986*
X0072334Y0081999*
X0072337Y0082013*
X0072338Y0082027*
X0072338Y0082042*
X0094182Y0033782D02*
D01*
X0094182Y0033796*
X0094181Y0033810*
X0094178Y0033824*
X0094175Y0033837*
X0094170Y0033851*
X0094165Y0033864*
X0094159Y0033877*
X0094152Y0033889*
X0094144Y0033901*
X0094135Y0033912*
X0094126Y0033922*
X0094115Y0033932*
X0094104Y0033941*
X0094093Y0033950*
X0094081Y0033957*
X0094068Y0033964*
X0094056Y0033970*
X0094042Y0033975*
X0094029Y0033978*
X0094015Y0033981*
X0094001Y0033983*
X0093987Y0033984*
X0093972*
X0093958Y0033983*
X0093944Y0033981*
X0093930Y0033978*
X0093917Y0033975*
X0093903Y0033970*
X0093890Y0033964*
X0093878Y0033957*
X0093866Y0033950*
X0093855Y0033941*
X0093844Y0033932*
X0093833Y0033922*
X0093824Y0033912*
X0093815Y0033901*
X0093807Y0033889*
X0093800Y0033877*
X0093794Y0033864*
X0093789Y0033851*
X0093784Y0033837*
X0093781Y0033824*
X0093778Y0033810*
X0093777Y0033796*
X0093776Y0033782*
X0093777Y0033767*
X0093778Y0033753*
X0093781Y0033739*
X0093784Y0033726*
X0093789Y0033712*
X0093794Y0033699*
X0093800Y0033686*
X0093807Y0033674*
X0093815Y0033662*
X0093824Y0033651*
X0093833Y0033640*
X0093844Y0033631*
X0093855Y0033622*
X0093866Y0033613*
X0093878Y0033606*
X0093890Y0033599*
X0093903Y0033593*
X0093917Y0033588*
X0093930Y0033585*
X0093944Y0033582*
X0093958Y0033580*
X0093972Y0033579*
X0093987*
X0094001Y0033580*
X0094015Y0033582*
X0094029Y0033585*
X0094042Y0033588*
X0094056Y0033593*
X0094068Y0033599*
X0094081Y0033606*
X0094093Y0033613*
X0094104Y0033622*
X0094115Y0033631*
X0094126Y0033640*
X0094135Y0033651*
X0094144Y0033662*
X0094152Y0033674*
X0094159Y0033686*
X0094165Y0033699*
X0094170Y0033712*
X0094175Y0033726*
X0094178Y0033739*
X0094181Y0033753*
X0094182Y0033767*
X0094182Y0033782*
X0091642D02*
D01*
X0091642Y0033796*
X0091641Y0033810*
X0091638Y0033824*
X0091635Y0033837*
X0091630Y0033851*
X0091625Y0033864*
X0091619Y0033877*
X0091612Y0033889*
X0091604Y0033901*
X0091595Y0033912*
X0091586Y0033922*
X0091575Y0033932*
X0091564Y0033941*
X0091553Y0033950*
X0091541Y0033957*
X0091528Y0033964*
X0091516Y0033970*
X0091502Y0033975*
X0091489Y0033978*
X0091475Y0033981*
X0091461Y0033983*
X0091447Y0033984*
X0091432*
X0091418Y0033983*
X0091404Y0033981*
X0091390Y0033978*
X0091377Y0033975*
X0091363Y0033970*
X0091350Y0033964*
X0091338Y0033957*
X0091326Y0033950*
X0091315Y0033941*
X0091304Y0033932*
X0091293Y0033922*
X0091284Y0033912*
X0091275Y0033901*
X0091267Y0033889*
X0091260Y0033877*
X0091254Y0033864*
X0091249Y0033851*
X0091244Y0033837*
X0091241Y0033824*
X0091238Y0033810*
X0091237Y0033796*
X0091236Y0033782*
X0091237Y0033767*
X0091238Y0033753*
X0091241Y0033739*
X0091244Y0033726*
X0091249Y0033712*
X0091254Y0033699*
X0091260Y0033686*
X0091267Y0033674*
X0091275Y0033662*
X0091284Y0033651*
X0091293Y0033640*
X0091304Y0033631*
X0091315Y0033622*
X0091326Y0033613*
X0091338Y0033606*
X0091350Y0033599*
X0091363Y0033593*
X0091377Y0033588*
X0091390Y0033585*
X0091404Y0033582*
X0091418Y0033580*
X0091432Y0033579*
X0091447*
X0091461Y0033580*
X0091475Y0033582*
X0091489Y0033585*
X0091502Y0033588*
X0091516Y0033593*
X0091528Y0033599*
X0091541Y0033606*
X0091553Y0033613*
X0091564Y0033622*
X0091575Y0033631*
X0091586Y0033640*
X0091595Y0033651*
X0091604Y0033662*
X0091612Y0033674*
X0091619Y0033686*
X0091625Y0033699*
X0091630Y0033712*
X0091635Y0033726*
X0091638Y0033739*
X0091641Y0033753*
X0091642Y0033767*
X0091642Y0033782*
X0089102D02*
D01*
X0089102Y0033796*
X0089101Y0033810*
X0089098Y0033824*
X0089095Y0033837*
X0089090Y0033851*
X0089085Y0033864*
X0089079Y0033877*
X0089072Y0033889*
X0089064Y0033901*
X0089055Y0033912*
X0089046Y0033922*
X0089035Y0033932*
X0089024Y0033941*
X0089013Y0033950*
X0089001Y0033957*
X0088988Y0033964*
X0088976Y0033970*
X0088962Y0033975*
X0088949Y0033978*
X0088935Y0033981*
X0088921Y0033983*
X0088907Y0033984*
X0088892*
X0088878Y0033983*
X0088864Y0033981*
X0088850Y0033978*
X0088837Y0033975*
X0088823Y0033970*
X0088810Y0033964*
X0088798Y0033957*
X0088786Y0033950*
X0088775Y0033941*
X0088764Y0033932*
X0088753Y0033922*
X0088744Y0033912*
X0088735Y0033901*
X0088727Y0033889*
X0088720Y0033877*
X0088714Y0033864*
X0088709Y0033851*
X0088704Y0033837*
X0088701Y0033824*
X0088698Y0033810*
X0088697Y0033796*
X0088696Y0033782*
X0088697Y0033767*
X0088698Y0033753*
X0088701Y0033739*
X0088704Y0033726*
X0088709Y0033712*
X0088714Y0033699*
X0088720Y0033686*
X0088727Y0033674*
X0088735Y0033662*
X0088744Y0033651*
X0088753Y0033640*
X0088764Y0033631*
X0088775Y0033622*
X0088786Y0033613*
X0088798Y0033606*
X0088810Y0033599*
X0088823Y0033593*
X0088837Y0033588*
X0088850Y0033585*
X0088864Y0033582*
X0088878Y0033580*
X0088892Y0033579*
X0088907*
X0088921Y0033580*
X0088935Y0033582*
X0088949Y0033585*
X0088962Y0033588*
X0088976Y0033593*
X0088988Y0033599*
X0089001Y0033606*
X0089013Y0033613*
X0089024Y0033622*
X0089035Y0033631*
X0089046Y0033640*
X0089055Y0033651*
X0089064Y0033662*
X0089072Y0033674*
X0089079Y0033686*
X0089085Y0033699*
X0089090Y0033712*
X0089095Y0033726*
X0089098Y0033739*
X0089101Y0033753*
X0089102Y0033767*
X0089102Y0033782*
X0086562D02*
D01*
X0086562Y0033796*
X0086561Y0033810*
X0086558Y0033824*
X0086555Y0033837*
X0086550Y0033851*
X0086545Y0033864*
X0086539Y0033877*
X0086532Y0033889*
X0086524Y0033901*
X0086515Y0033912*
X0086506Y0033922*
X0086495Y0033932*
X0086484Y0033941*
X0086473Y0033950*
X0086461Y0033957*
X0086448Y0033964*
X0086436Y0033970*
X0086422Y0033975*
X0086409Y0033978*
X0086395Y0033981*
X0086381Y0033983*
X0086367Y0033984*
X0086352*
X0086338Y0033983*
X0086324Y0033981*
X0086310Y0033978*
X0086297Y0033975*
X0086283Y0033970*
X0086270Y0033964*
X0086258Y0033957*
X0086246Y0033950*
X0086235Y0033941*
X0086224Y0033932*
X0086213Y0033922*
X0086204Y0033912*
X0086195Y0033901*
X0086187Y0033889*
X0086180Y0033877*
X0086174Y0033864*
X0086169Y0033851*
X0086164Y0033837*
X0086161Y0033824*
X0086158Y0033810*
X0086157Y0033796*
X0086156Y0033782*
X0086157Y0033767*
X0086158Y0033753*
X0086161Y0033739*
X0086164Y0033726*
X0086169Y0033712*
X0086174Y0033699*
X0086180Y0033686*
X0086187Y0033674*
X0086195Y0033662*
X0086204Y0033651*
X0086213Y0033640*
X0086224Y0033631*
X0086235Y0033622*
X0086246Y0033613*
X0086258Y0033606*
X0086270Y0033599*
X0086283Y0033593*
X0086297Y0033588*
X0086310Y0033585*
X0086324Y0033582*
X0086338Y0033580*
X0086352Y0033579*
X0086367*
X0086381Y0033580*
X0086395Y0033582*
X0086409Y0033585*
X0086422Y0033588*
X0086436Y0033593*
X0086448Y0033599*
X0086461Y0033606*
X0086473Y0033613*
X0086484Y0033622*
X0086495Y0033631*
X0086506Y0033640*
X0086515Y0033651*
X0086524Y0033662*
X0086532Y0033674*
X0086539Y0033686*
X0086545Y0033699*
X0086550Y0033712*
X0086555Y0033726*
X0086558Y0033739*
X0086561Y0033753*
X0086562Y0033767*
X0086562Y0033782*
X0084022D02*
D01*
X0084022Y0033796*
X0084021Y0033810*
X0084018Y0033824*
X0084015Y0033837*
X0084010Y0033851*
X0084005Y0033864*
X0083999Y0033877*
X0083992Y0033889*
X0083984Y0033901*
X0083975Y0033912*
X0083966Y0033922*
X0083955Y0033932*
X0083944Y0033941*
X0083933Y0033950*
X0083921Y0033957*
X0083908Y0033964*
X0083896Y0033970*
X0083882Y0033975*
X0083869Y0033978*
X0083855Y0033981*
X0083841Y0033983*
X0083827Y0033984*
X0083812*
X0083798Y0033983*
X0083784Y0033981*
X0083770Y0033978*
X0083757Y0033975*
X0083743Y0033970*
X0083730Y0033964*
X0083718Y0033957*
X0083706Y0033950*
X0083695Y0033941*
X0083684Y0033932*
X0083673Y0033922*
X0083664Y0033912*
X0083655Y0033901*
X0083647Y0033889*
X0083640Y0033877*
X0083634Y0033864*
X0083629Y0033851*
X0083624Y0033837*
X0083621Y0033824*
X0083618Y0033810*
X0083617Y0033796*
X0083616Y0033782*
X0083617Y0033767*
X0083618Y0033753*
X0083621Y0033739*
X0083624Y0033726*
X0083629Y0033712*
X0083634Y0033699*
X0083640Y0033686*
X0083647Y0033674*
X0083655Y0033662*
X0083664Y0033651*
X0083673Y0033640*
X0083684Y0033631*
X0083695Y0033622*
X0083706Y0033613*
X0083718Y0033606*
X0083730Y0033599*
X0083743Y0033593*
X0083757Y0033588*
X0083770Y0033585*
X0083784Y0033582*
X0083798Y0033580*
X0083812Y0033579*
X0083827*
X0083841Y0033580*
X0083855Y0033582*
X0083869Y0033585*
X0083882Y0033588*
X0083896Y0033593*
X0083908Y0033599*
X0083921Y0033606*
X0083933Y0033613*
X0083944Y0033622*
X0083955Y0033631*
X0083966Y0033640*
X0083975Y0033651*
X0083984Y0033662*
X0083992Y0033674*
X0083999Y0033686*
X0084005Y0033699*
X0084010Y0033712*
X0084015Y0033726*
X0084018Y0033739*
X0084021Y0033753*
X0084022Y0033767*
X0084022Y0033782*
X0081482D02*
D01*
X0081482Y0033796*
X0081481Y0033810*
X0081478Y0033824*
X0081475Y0033837*
X0081470Y0033851*
X0081465Y0033864*
X0081459Y0033877*
X0081452Y0033889*
X0081444Y0033901*
X0081435Y0033912*
X0081426Y0033922*
X0081415Y0033932*
X0081404Y0033941*
X0081393Y0033950*
X0081381Y0033957*
X0081368Y0033964*
X0081356Y0033970*
X0081342Y0033975*
X0081329Y0033978*
X0081315Y0033981*
X0081301Y0033983*
X0081287Y0033984*
X0081272*
X0081258Y0033983*
X0081244Y0033981*
X0081230Y0033978*
X0081217Y0033975*
X0081203Y0033970*
X0081190Y0033964*
X0081178Y0033957*
X0081166Y0033950*
X0081155Y0033941*
X0081144Y0033932*
X0081133Y0033922*
X0081124Y0033912*
X0081115Y0033901*
X0081107Y0033889*
X0081100Y0033877*
X0081094Y0033864*
X0081089Y0033851*
X0081084Y0033837*
X0081081Y0033824*
X0081078Y0033810*
X0081077Y0033796*
X0081076Y0033782*
X0081077Y0033767*
X0081078Y0033753*
X0081081Y0033739*
X0081084Y0033726*
X0081089Y0033712*
X0081094Y0033699*
X0081100Y0033686*
X0081107Y0033674*
X0081115Y0033662*
X0081124Y0033651*
X0081133Y0033640*
X0081144Y0033631*
X0081155Y0033622*
X0081166Y0033613*
X0081178Y0033606*
X0081190Y0033599*
X0081203Y0033593*
X0081217Y0033588*
X0081230Y0033585*
X0081244Y0033582*
X0081258Y0033580*
X0081272Y0033579*
X0081287*
X0081301Y0033580*
X0081315Y0033582*
X0081329Y0033585*
X0081342Y0033588*
X0081356Y0033593*
X0081368Y0033599*
X0081381Y0033606*
X0081393Y0033613*
X0081404Y0033622*
X0081415Y0033631*
X0081426Y0033640*
X0081435Y0033651*
X0081444Y0033662*
X0081452Y0033674*
X0081459Y0033686*
X0081465Y0033699*
X0081470Y0033712*
X0081475Y0033726*
X0081478Y0033739*
X0081481Y0033753*
X0081482Y0033767*
X0081482Y0033782*
M02*