%FSDAX43Y43*%
%MOMM*%
%SFA1B1*%

%IPPOS*%
%ADD19C,0.051000*%
%LNarduinounoshield-1*%
%LPD*%
G54D19*
X0075649Y0036957D02*
X0076749D01*
X0076200Y0036406D02*
Y0037506D01*
X0076835Y0057912D02*
X0077597D01*
X0077216Y0057531D02*
Y0058293D01*
X0069215Y0057912D02*
X0069977D01*
X0069596Y0057531D02*
Y0058293D01*
X0066675Y0057912D02*
X0067437D01*
X0067056Y0057531D02*
Y0058293D01*
X0064135Y0057912D02*
X0064897D01*
X0064516Y0057531D02*
Y0058293D01*
X0061595Y0057912D02*
X0062357D01*
X0061976Y0057531D02*
Y0058293D01*
X0059055Y0057912D02*
X0059817D01*
X0059436Y0057531D02*
Y0058293D01*
X0074295Y0057912D02*
X0075057D01*
X0074676Y0057531D02*
Y0058293D01*
X0071755Y0057912D02*
X0072517D01*
X0072136Y0057531D02*
Y0058293D01*
X0083944Y0048387D02*
X0084964D01*
X0084455Y0047876D02*
Y0048896D01*
X0086484Y0048387D02*
X0087504D01*
X0086995Y0047876D02*
Y0048896D01*
X0089024Y0048387D02*
X0090044D01*
X0089535Y0047876D02*
Y0048896D01*
X0091564Y0048387D02*
X0092584D01*
X0092075Y0047876D02*
Y0048896D01*
X0094104Y0048387D02*
X0095124D01*
X0094615Y0047876D02*
Y0048896D01*
X0080134Y0043942D02*
X0081154D01*
X0080645Y0043431D02*
Y0044451D01*
X0077594Y0043942D02*
X0078614D01*
X0078105Y0043431D02*
Y0044451D01*
X0075054Y0043942D02*
X0076074D01*
X0075565Y0043431D02*
Y0044451D01*
X0083944Y0051562D02*
X0084964D01*
X0084455Y0051051D02*
Y0052071D01*
X0086484Y0051562D02*
X0087504D01*
X0086995Y0051051D02*
Y0052071D01*
X0089024Y0051562D02*
X0090044D01*
X0089535Y0051051D02*
Y0052071D01*
X0091564Y0051562D02*
X0092584D01*
X0092075Y0051051D02*
Y0052071D01*
X0094104Y0051562D02*
X0095124D01*
X0094615Y0051051D02*
Y0052071D01*
X0085214Y0061722D02*
X0086234D01*
X0085725Y0061211D02*
Y0062231D01*
X0085214Y0064262D02*
X0086234D01*
X0085725Y0063751D02*
Y0064771D01*
X0087754Y0061722D02*
X0088774D01*
X0088265Y0061211D02*
Y0062231D01*
X0090294Y0061722D02*
X0091314D01*
X0090805Y0061211D02*
Y0062231D01*
X0087754Y0064262D02*
X0088774D01*
X0088265Y0063751D02*
Y0064771D01*
X0090294Y0064262D02*
X0091314D01*
X0090805Y0063751D02*
Y0064771D01*
X0092834Y0061722D02*
X0093854D01*
X0093345Y0061211D02*
Y0062231D01*
X0092834Y0064262D02*
X0093854D01*
X0093345Y0063751D02*
Y0064771D01*
X0070739Y0033782D02*
X0071501D01*
X0071120Y0033401D02*
Y0034163D01*
X0073279Y0033782D02*
X0074041D01*
X0073660Y0033401D02*
Y0034163D01*
X0058039Y0033782D02*
X0058801D01*
X0058420Y0033401D02*
Y0034163D01*
X0060579Y0033782D02*
X0061341D01*
X0060960Y0033401D02*
Y0034163D01*
X0063119Y0033782D02*
X0063881D01*
X0063500Y0033401D02*
Y0034163D01*
X0065659Y0033782D02*
X0066421D01*
X0066040Y0033401D02*
Y0034163D01*
X0068199Y0033782D02*
X0068961D01*
X0068580Y0033401D02*
Y0034163D01*
X0075819Y0033782D02*
X0076581D01*
X0076200Y0033401D02*
Y0034163D01*
X0088519Y0082042D02*
X0089281D01*
X0088900Y0081661D02*
Y0082423D01*
X0091059Y0082042D02*
X0091821D01*
X0091440Y0081661D02*
Y0082423D01*
X0075819Y0082042D02*
X0076581D01*
X0076200Y0081661D02*
Y0082423D01*
X0078359Y0082042D02*
X0079121D01*
X0078740Y0081661D02*
Y0082423D01*
X0080899Y0082042D02*
X0081661D01*
X0081280Y0081661D02*
Y0082423D01*
X0083439Y0082042D02*
X0084201D01*
X0083820Y0081661D02*
Y0082423D01*
X0085979Y0082042D02*
X0086741D01*
X0086360Y0081661D02*
Y0082423D01*
X0093599Y0082042D02*
X0094361D01*
X0093980Y0081661D02*
Y0082423D01*
X0048895Y0082042D02*
X0049657D01*
X0049276Y0081661D02*
Y0082423D01*
X0051435Y0082042D02*
X0052197D01*
X0051816Y0081661D02*
Y0082423D01*
X0053975Y0082042D02*
X0054737D01*
X0054356Y0081661D02*
Y0082423D01*
X0056515Y0082042D02*
X0057277D01*
X0056896Y0081661D02*
Y0082423D01*
X0059055Y0082042D02*
X0059817D01*
X0059436Y0081661D02*
Y0082423D01*
X0061595Y0082042D02*
X0062357D01*
X0061976Y0081661D02*
Y0082423D01*
X0064135Y0082042D02*
X0064897D01*
X0064516Y0081661D02*
Y0082423D01*
X0066675Y0082042D02*
X0067437D01*
X0067056Y0081661D02*
Y0082423D01*
X0069215Y0082042D02*
X0069977D01*
X0069596Y0081661D02*
Y0082423D01*
X0071755Y0082042D02*
X0072517D01*
X0072136Y0081661D02*
Y0082423D01*
X0093599Y0033782D02*
X0094361D01*
X0093980Y0033401D02*
Y0034163D01*
X0091059Y0033782D02*
X0091821D01*
X0091440Y0033401D02*
Y0034163D01*
X0088519Y0033782D02*
X0089281D01*
X0088900Y0033401D02*
Y0034163D01*
X0085979Y0033782D02*
X0086741D01*
X0086360Y0033401D02*
Y0034163D01*
X0083439Y0033782D02*
X0084201D01*
X0083820Y0033401D02*
Y0034163D01*
X0080899Y0033782D02*
X0081661D01*
X0081280Y0033401D02*
Y0034163D01*
M02*